<?xml version="1.0" standalone="no"?>
<!DOCTYPE svg PUBLIC "-//W3C//DTD SVG 20010904//EN"
 "http://www.w3.org/TR/2001/REC-SVG-20010904/DTD/svg10.dtd">
<svg version="1.0" xmlns="http://www.w3.org/2000/svg"
 width="1120.000000pt" height="392.000000pt" viewBox="0 0 1120.000000 392.000000"
 preserveAspectRatio="xMidYMid meet">

<g transform="translate(0.000000,392.000000) scale(0.100000,-0.100000)"
fill="#000000" stroke="none">
<path d="M3895 3910 c-50 -8 -140 -38 -119 -39 6 -1 31 7 55 17 42 16 221 17
3274 17 3053 0 3232 -1 3274 -17 24 -10 49 -18 55 -17 6 0 -14 10 -44 22 l-55
22 -3195 1 c-1757 1 -3217 -2 -3245 -6z"/>
<path d="M5488 3883 c7 -3 16 -2 19 1 4 3 -2 6 -13 5 -11 0 -14 -3 -6 -6z"/>
<path d="M5547 3883 c-11 -10 -8 -71 3 -78 16 -10 40 14 40 39 0 32 -27 56
-43 39z m28 -38 c0 -16 -6 -30 -12 -32 -9 -3 -13 7 -13 32 0 25 4 35 13 33 6
-3 12 -17 12 -33z"/>
<path d="M5640 3880 c0 -5 -6 -10 -14 -10 -18 0 -29 -31 -20 -54 3 -9 15 -16
25 -16 16 0 19 8 19 45 0 25 -2 45 -5 45 -3 0 -5 -4 -5 -10z m0 -45 c0 -26
-14 -33 -25 -15 -9 14 1 40 15 40 5 0 10 -11 10 -25z"/>
<path d="M5670 3845 c0 -45 1 -46 28 -43 35 4 39 41 5 46 -13 2 -23 10 -23 18
0 16 36 19 43 4 3 -6 4 -5 3 2 -1 7 -15 14 -29 16 -26 3 -27 1 -27 -43z m50
-20 c0 -8 -9 -15 -20 -15 -11 0 -20 7 -20 15 0 8 9 15 20 15 11 0 20 -7 20
-15z"/>
<path d="M6328 3883 c7 -3 16 -2 19 1 4 3 -2 6 -13 5 -11 0 -14 -3 -6 -6z"/>
<path d="M6387 3883 c-11 -10 -8 -71 3 -78 16 -10 40 14 40 39 0 32 -27 56
-43 39z m28 -38 c0 -16 -6 -30 -12 -32 -9 -3 -13 7 -13 32 0 25 4 35 13 33 6
-3 12 -17 12 -33z"/>
<path d="M6480 3880 c0 -5 -6 -10 -14 -10 -18 0 -29 -31 -20 -54 3 -9 15 -16
25 -16 16 0 19 8 19 45 0 25 -2 45 -5 45 -3 0 -5 -4 -5 -10z m0 -45 c0 -26
-14 -33 -25 -15 -9 14 1 40 15 40 5 0 10 -11 10 -25z"/>
<path d="M6510 3845 c0 -45 1 -46 28 -43 35 4 39 41 5 46 -13 2 -23 10 -23 18
0 16 36 19 43 4 3 -6 4 -5 3 2 -1 7 -15 14 -29 16 -26 3 -27 1 -27 -43z m50
-20 c0 -8 -9 -15 -20 -15 -11 0 -20 7 -20 15 0 8 9 15 20 15 11 0 20 -7 20
-15z"/>
<path d="M3702 3840 c-50 -27 -131 -90 -116 -90 3 0 22 14 41 30 18 17 56 41
83 55 28 14 50 28 50 30 0 7 -1 7 -58 -25z"/>
<path d="M5493 3840 c-29 -36 -29 -40 5 -39 24 2 25 2 4 6 l-24 5 23 24 c12
13 21 26 18 28 -2 2 -14 -9 -26 -24z"/>
<path d="M6333 3840 c-29 -36 -29 -40 5 -39 24 2 25 2 4 6 l-24 5 23 24 c12
13 21 26 18 28 -2 2 -14 -9 -26 -24z"/>
<path d="M10450 3865 c0 -2 22 -16 50 -30 27 -14 65 -38 83 -55 19 -16 38 -30
42 -30 4 0 -12 16 -36 36 -41 34 -139 90 -139 79z"/>
<path d="M5215 3806 c-38 -17 -90 -72 -104 -109 -7 -17 -11 -119 -11 -253 l0
-224 -754 0 c-525 0 -763 -3 -785 -11 -61 -22 -61 -19 -61 -544 0 -488 -1
-502 -39 -533 -14 -11 -14 -11 2 -6 45 16 47 34 47 538 0 334 3 482 11 500 7
14 25 30 42 36 20 6 283 10 783 10 l754 0 0 -224 c0 -134 4 -236 11 -253 10
-29 77 -103 91 -103 5 0 -8 15 -28 32 -61 53 -64 71 -64 323 l0 225 111 0 c95
0 110 -2 105 -15 -7 -18 2 -18 34 0 14 8 28 14 32 15 4 0 9 -90 10 -200 l3
-200 194 129 194 129 91 -67 c50 -37 98 -71 106 -75 22 -11 -15 18 -108 86
l-83 60 103 69 103 69 97 0 98 0 2 -200 3 -200 300 200 300 200 98 0 97 0 0
-110 c0 -123 11 -158 55 -178 41 -19 1066 -17 1104 2 41 22 51 55 51 176 l0
110 96 0 95 0 -3 -239 c-2 -132 0 -234 4 -228 4 7 8 114 8 240 l0 227 454 0
c290 0 464 -4 483 -10 47 -17 53 -43 53 -236 0 -184 8 -224 47 -238 16 -5 16
-5 2 6 -34 28 -39 55 -39 233 0 197 -7 225 -61 244 -22 7 -179 11 -485 11
l-454 0 0 228 c0 125 -4 232 -8 239 -4 6 -6 -96 -4 -228 l3 -239 -95 0 -96 0
0 110 c0 121 -10 154 -51 176 -38 19 -1063 21 -1104 2 -44 -20 -55 -55 -55
-178 l0 -110 -97 0 -98 0 -300 200 -300 200 -3 -200 -2 -200 -98 0 -97 0 -300
200 -300 200 -3 -120 c-1 -66 -5 -120 -8 -120 -3 0 -32 21 -65 46 -46 35 -57
49 -49 59 8 9 5 14 -12 19 -13 3 -31 6 -41 6 -17 0 -17 -2 -1 -32 22 -43 24
-45 33 -29 7 10 24 2 74 -35 l66 -49 1 -72 c0 -40 -3 -73 -7 -73 -5 1 -19 7
-33 15 -32 18 -41 18 -34 0 5 -13 -10 -15 -105 -15 l-111 0 0 225 c0 167 4
234 14 258 19 45 78 95 123 102 64 11 69 13 33 13 -19 1 -48 -5 -65 -12z m491
-396 c156 -105 283 -194 280 -199 -3 -4 -48 -36 -100 -70 l-94 -62 -191 143
-191 143 0 117 c0 65 2 118 5 118 3 0 134 -86 291 -190z m799 0 c157 -105 285
-192 285 -195 0 -5 -567 -385 -575 -385 -3 0 -5 173 -5 385 0 212 2 385 5 385
3 0 133 -86 290 -190z m1666 71 l29 -29 0 -237 0 -237 -29 -29 -29 -29 -537 0
-537 0 -29 29 -29 29 0 237 0 237 29 29 29 29 537 0 537 0 29 -29z m-2576
-264 c88 -66 166 -125 174 -132 11 -11 -18 -34 -168 -134 -99 -67 -183 -121
-186 -121 -3 0 -5 117 -5 261 0 205 3 259 13 253 6 -4 84 -62 172 -127z"/>
<path d="M7218 3263 c12 -2 22 -11 22 -18 0 -7 -10 -15 -22 -17 -22 -3 -22 -4
3 -9 23 -5 26 -3 25 20 -1 20 -6 26 -26 28 -22 1 -22 1 -2 -4z"/>
<path d="M7450 3261 c0 -5 -9 -11 -21 -14 -30 -8 -23 -62 9 -63 20 -1 22 3 22
42 0 24 -2 44 -5 44 -3 0 -5 -4 -5 -9z m-5 -46 c0 -10 -6 -20 -12 -22 -8 -3
-13 5 -13 22 0 17 5 25 13 23 6 -3 12 -13 12 -23z"/>
<path d="M7761 3223 c1 -27 4 -38 6 -26 2 13 13 24 26 26 l22 4 -22 2 c-33 2
-29 29 5 34 25 4 25 4 -5 6 -33 1 -33 1 -32 -46z"/>
<path d="M7863 3225 c0 -27 2 -38 4 -22 2 15 2 37 0 50 -2 12 -4 0 -4 -28z"/>
<path d="M7888 3260 c-5 -17 3 -80 11 -80 7 0 6 79 -2 86 -3 3 -7 0 -9 -6z"/>
<path d="M7276 3241 c-3 -5 3 -7 14 -4 11 3 20 1 20 -5 0 -5 -9 -12 -21 -15
-22 -6 -22 -29 -1 -33 7 -1 8 0 2 3 -15 7 -12 23 4 23 8 0 17 -8 20 -17 2 -10
4 -2 3 17 -2 34 -27 54 -41 31z"/>
<path d="M7342 3213 c1 -37 1 -37 5 -5 3 18 10 32 18 32 8 0 16 -14 18 -32 l5
-33 -2 35 c-1 28 -5 36 -23 38 -21 3 -23 -1 -21 -35z"/>
<path d="M7471 3200 c0 -25 3 -38 7 -30 4 8 13 15 21 15 8 0 16 7 18 15 4 13
3 13 -6 0 -8 -11 -13 -12 -22 -3 -16 16 -3 47 17 39 8 -3 12 -2 9 3 -3 6 -14
9 -25 8 -17 -1 -20 -8 -19 -47z"/>
<path d="M7546 3241 c-3 -5 3 -7 14 -4 11 3 20 1 20 -5 0 -5 -9 -12 -20 -15
-30 -8 -26 -37 5 -35 22 2 26 7 23 33 -3 30 -30 47 -42 26z m29 -41 c-3 -5
-10 -10 -16 -10 -5 0 -9 5 -9 10 0 6 7 10 16 10 8 0 12 -4 9 -10z"/>
<path d="M7610 3246 c0 -2 9 -6 20 -9 11 -3 18 -1 14 4 -5 9 -34 13 -34 5z"/>
<path d="M7670 3246 c0 -2 9 -6 20 -9 11 -3 18 -1 14 4 -5 9 -34 13 -34 5z"/>
<path d="M7833 3215 c0 -22 2 -30 4 -17 2 12 2 30 0 40 -3 9 -5 -1 -4 -23z"/>
<path d="M7927 3244 c-4 -4 -7 -18 -7 -31 0 -26 26 -41 42 -25 8 8 5 9 -11 5
-12 -3 -21 -1 -21 6 0 6 9 11 21 11 14 0 19 5 17 17 -3 19 -29 29 -41 17z m33
-14 c0 -5 -7 -10 -15 -10 -8 0 -15 5 -15 10 0 6 7 10 15 10 8 0 15 -4 15 -10z"/>
<path d="M7991 3213 c2 -35 2 -35 6 -8 3 16 10 33 16 37 8 5 6 8 -5 8 -14 0
-18 -8 -17 -37z"/>
<path d="M7630 3213 c15 -7 12 -21 -5 -26 -11 -4 -10 -4 2 -3 21 2 25 28 5 32
-7 1 -8 0 -2 -3z"/>
<path d="M7690 3213 c15 -7 12 -21 -5 -26 -11 -4 -10 -4 2 -3 21 2 25 28 5 32
-7 1 -8 0 -2 -3z"/>
<path d="M7220 3190 c-23 -7 -23 -8 -3 -9 12 -1 25 4 28 9 3 6 5 10 3 9 -2 -1
-14 -5 -28 -9z"/>
<path d="M5993 3813 c59 -2 154 -2 210 0 56 1 8 3 -108 3 -115 0 -161 -2 -102
-3z"/>
<path d="M7430 3810 c643 -4 860 -8 876 -17 12 -7 35 -28 53 -48 17 -20 31
-32 31 -27 0 14 -74 81 -103 91 -19 8 -296 10 -870 9 l-842 -3 855 -5z"/>
<path d="M3532 3696 c-33 -39 -87 -136 -77 -136 2 0 16 22 30 50 14 27 39 65
56 85 18 20 30 37 28 39 -2 2 -19 -15 -37 -38z"/>
<path d="M5663 3695 c0 -27 2 -38 4 -22 2 15 2 37 0 50 -2 12 -4 0 -4 -28z"/>
<path d="M5733 3695 c0 -27 2 -38 4 -22 2 15 2 37 0 50 -2 12 -4 0 -4 -28z"/>
<path d="M6553 3695 c0 -27 2 -38 4 -22 2 15 2 37 0 50 -2 12 -4 0 -4 -28z"/>
<path d="M10640 3735 c0 -4 14 -23 30 -42 17 -18 41 -56 55 -83 14 -28 28 -50
30 -50 11 0 -45 98 -79 139 -20 24 -36 40 -36 36z"/>
<path d="M5466 3711 c-3 -5 3 -7 14 -4 11 3 20 1 20 -5 0 -5 -9 -12 -20 -15
-30 -8 -26 -37 5 -35 22 2 26 7 23 33 -3 30 -30 47 -42 26z m29 -41 c-3 -5
-10 -10 -16 -10 -5 0 -9 5 -9 10 0 6 7 10 16 10 8 0 12 -4 9 -10z"/>
<path d="M5531 3683 c2 -35 2 -35 6 -8 3 16 10 33 16 37 8 5 6 8 -5 8 -14 0
-18 -8 -17 -37z"/>
<path d="M5573 3685 c0 -22 2 -30 4 -17 2 12 2 30 0 40 -3 9 -5 -1 -4 -23z"/>
<path d="M5596 3711 c-3 -5 3 -7 14 -4 11 3 20 1 20 -5 0 -5 -9 -12 -21 -15
-22 -6 -22 -29 -1 -33 7 -1 8 0 2 3 -15 7 -12 23 4 23 8 0 17 -8 20 -17 2 -10
4 -2 3 17 -2 34 -27 54 -41 31z"/>
<path d="M5690 3713 c5 -2 10 -15 10 -28 0 -13 -5 -26 -10 -28 -6 -3 -5 -4 2
-3 7 2 13 15 13 31 0 16 -6 29 -13 31 -7 1 -8 0 -2 -3z"/>
<path d="M5773 3714 c24 -8 22 -28 -3 -21 -12 3 -20 0 -20 -8 0 -8 9 -11 25
-7 31 5 30 36 0 39 -16 1 -16 1 -2 -3z"/>
<path d="M6363 3685 c0 -22 2 -30 4 -17 2 12 2 30 0 40 -3 9 -5 -1 -4 -23z"/>
<path d="M6463 3714 c24 -8 22 -28 -3 -21 -12 3 -20 0 -20 -8 0 -8 9 -11 25
-7 31 5 30 36 0 39 -16 1 -16 1 -2 -3z"/>
<path d="M6514 3706 c-8 -22 -1 -49 14 -52 7 -1 8 0 2 3 -14 7 -13 50 3 56 9
4 9 6 -1 6 -7 1 -15 -5 -18 -13z"/>
<path d="M5401 3694 c0 -11 3 -14 6 -6 3 7 2 16 -1 19 -3 4 -6 -2 -5 -13z"/>
<path d="M6393 3685 c0 -8 4 -12 9 -9 4 3 8 9 8 15 0 5 -4 9 -8 9 -5 0 -9 -7
-9 -15z"/>
<path d="M5410 3659 c0 -5 5 -7 10 -4 6 3 10 8 10 11 0 2 -4 4 -10 4 -5 0 -10
-5 -10 -11z"/>
<path d="M5775 3660 c-16 -7 -17 -9 -3 -9 9 -1 20 4 23 9 7 11 7 11 -20 0z"/>
<path d="M6465 3660 c-16 -7 -17 -9 -3 -9 9 -1 20 4 23 9 7 11 7 11 -20 0z"/>
<path d="M3425 3497 c-18 -49 -19 -96 -23 -714 l-3 -663 -95 0 -94 0 0 225 0
225 -655 0 -655 0 0 -325 c0 -179 -3 -325 -7 -325 -5 1 -19 7 -33 15 -32 18
-41 18 -34 0 5 -13 -10 -15 -105 -15 l-111 0 0 325 0 325 -805 0 -805 0 0
-730 0 -730 805 0 805 0 0 400 0 400 111 0 c95 0 110 -2 105 -15 -7 -18 2 -18
34 0 14 8 28 14 33 15 4 0 7 -90 7 -200 l0 -200 655 0 655 0 0 115 c0 63 3
115 8 115 4 -1 18 -7 32 -15 32 -18 41 -18 34 0 -5 12 5 15 54 15 l61 0 3
-627 c4 -614 4 -629 25 -683 12 -30 22 -50 22 -44 1 6 -7 31 -16 55 -16 40
-18 106 -21 672 -2 417 0 627 7 627 24 0 60 -24 70 -47 7 -16 11 -163 11 -464
0 -466 2 -487 47 -503 16 -5 16 -5 2 6 -38 30 -39 46 -39 498 0 491 0 488 -65
511 l-35 13 0 177 c0 161 2 178 18 182 16 4 16 5 -1 6 -17 1 -18 31 -15 664 3
612 5 666 22 710 10 26 16 50 14 52 -2 3 -13 -19 -23 -48z m-1825 -1047 l0
-110 -795 0 -795 0 0 110 0 110 795 0 795 0 0 -110z m1600 0 l0 -110 -645 0
-645 0 0 110 0 110 645 0 645 0 0 -110z m-1600 -325 l0 -205 -48 0 c-69 0 -90
19 -95 83 l-3 52 -2 -52 c-2 -45 1 -54 24 -72 19 -15 41 -21 75 -21 l49 0 0
-395 0 -395 -795 0 -795 0 0 605 0 605 795 0 795 0 0 -205z m1600 175 l0 -30
-200 0 -200 0 0 -155 0 -155 200 0 200 0 0 -30 0 -30 -200 0 -200 0 0 -155 0
-155 200 0 200 0 0 -35 0 -35 -645 0 -645 0 0 120 0 120 200 0 200 0 0 155 0
155 -200 0 -200 0 0 130 0 130 645 0 645 0 0 -30z m0 -185 l0 -145 -195 0
-195 0 0 145 0 145 195 0 195 0 0 -145z m200 -185 l0 -180 -61 0 c-50 0 -60 3
-55 15 7 18 -2 18 -34 0 -14 -8 -28 -14 -32 -15 -5 0 -8 81 -8 180 l0 180 95
0 95 0 0 -180z m-1100 -15 l0 -145 -195 0 -195 0 0 145 0 145 195 0 195 0 0
-145z m900 -170 l0 -145 -195 0 -195 0 0 145 0 145 195 0 195 0 0 -145z"/>
<path d="M543 2483 c-7 -2 -13 -20 -13 -38 0 -25 5 -35 21 -40 12 -4 25 -3 30
2 6 6 1 9 -13 9 -19 -1 -23 4 -23 29 0 24 4 30 22 29 12 0 20 3 17 8 -6 9 -22
9 -41 1z"/>
<path d="M937 2474 c-9 -9 9 -68 21 -70 7 -1 8 0 2 3 -14 7 -13 50 2 55 8 3 6
6 -4 10 -9 4 -18 5 -21 2z"/>
<path d="M622 2458 c-16 -16 -15 -33 4 -48 21 -18 49 9 39 39 -7 23 -25 27
-43 9z m35 -14 c8 -21 -13 -42 -28 -27 -13 13 -5 43 11 43 6 0 13 -7 17 -16z"/>
<path d="M693 2435 c0 -22 2 -30 4 -17 2 12 2 30 0 40 -3 9 -5 -1 -4 -23z"/>
<path d="M719 2456 c5 -6 11 -22 14 -36 4 -21 4 -20 6 8 0 17 5 32 10 32 6 0
12 -15 14 -32 l4 -33 1 37 c2 35 0 37 -28 36 -20 -1 -27 -5 -21 -12z"/>
<path d="M790 2426 c0 -25 5 -46 10 -46 6 0 10 4 10 9 0 5 9 11 21 14 16 4 20
12 17 34 -2 22 -9 29 -30 31 -27 3 -28 2 -28 -42z m45 9 c0 -10 -6 -20 -12
-22 -8 -3 -13 5 -13 22 0 17 5 25 13 23 6 -3 12 -13 12 -23z"/>
<path d="M873 2438 c1 -26 7 -34 25 -36 20 -3 22 1 21 35 -1 35 -2 36 -8 9 -8
-40 -28 -44 -35 -7 l-6 31 3 -32z"/>
<path d="M987 2464 c-4 -4 -7 -18 -7 -31 0 -27 26 -41 43 -23 9 10 7 11 -10 5
-14 -4 -23 -2 -23 4 0 6 9 11 21 11 14 0 19 5 17 17 -3 19 -29 29 -41 17z m28
-14 c3 -5 -1 -10 -9 -10 -9 0 -16 5 -16 10 0 6 4 10 9 10 6 0 13 -4 16 -10z"/>
<path d="M1053 2435 c0 -22 2 -30 4 -17 2 12 2 30 0 40 -3 9 -5 -1 -4 -23z"/>
<path d="M2233 2473 c-4 -10 2 -23 15 -34 27 -22 28 -33 2 -26 -11 3 -18 1
-14 -4 9 -14 34 -10 41 7 3 8 -4 26 -18 41 l-24 25 24 -7 c16 -5 21 -4 17 4
-11 17 -36 13 -43 -6z"/>
<path d="M2563 2445 c0 -27 2 -38 4 -22 2 15 2 37 0 50 -2 12 -4 0 -4 -28z"/>
<path d="M2643 2483 c-7 -2 -13 -20 -13 -38 0 -25 5 -35 21 -40 12 -4 25 -3
30 2 6 6 1 9 -13 9 -19 -1 -23 4 -23 29 0 24 4 30 22 29 12 0 20 3 17 8 -6 9
-22 9 -41 1z"/>
<path d="M2870 2481 c0 -5 -9 -11 -21 -14 -30 -8 -23 -61 9 -65 20 -3 22 1 22
42 0 25 -2 46 -5 46 -3 0 -5 -4 -5 -9z m-5 -46 c0 -10 -6 -20 -12 -22 -8 -3
-13 5 -13 22 0 17 5 25 13 23 6 -3 12 -13 12 -23z"/>
<path d="M2307 2464 c-13 -13 -7 -55 9 -61 24 -9 51 23 38 45 -12 19 -36 27
-47 16z m33 -29 c0 -16 -6 -25 -15 -25 -9 0 -15 9 -15 25 0 16 6 25 15 25 9 0
15 -9 15 -25z"/>
<path d="M2370 2451 c0 -33 11 -51 31 -51 16 0 19 7 17 38 -1 36 -1 36 -5 5
-5 -41 -23 -43 -23 -3 0 17 -4 30 -10 30 -5 0 -10 -9 -10 -19z"/>
<path d="M2453 2435 c0 -22 2 -30 4 -17 2 12 2 30 0 40 -3 9 -5 -1 -4 -23z"/>
<path d="M2477 2463 c6 -4 13 -22 16 -38 4 -27 5 -27 3 4 0 21 -7 36 -16 38
-10 3 -11 2 -3 -4z"/>
<path d="M2524 2456 c-8 -22 -1 -49 14 -52 7 -1 8 0 2 3 -14 7 -13 50 3 56 9
4 9 6 -1 6 -7 1 -15 -5 -18 -13z"/>
<path d="M2716 2461 c-3 -5 4 -7 16 -5 l23 5 -23 -12 c-28 -15 -25 -43 6 -47
21 -3 23 0 20 30 -3 32 -29 51 -42 29z m34 -30 c0 -12 -20 -25 -27 -18 -7 7 6
27 18 27 5 0 9 -4 9 -9z"/>
<path d="M2781 2433 c1 -27 3 -31 6 -13 2 14 12 31 21 38 14 11 13 12 -6 12
-19 0 -22 -5 -21 -37z"/>
<path d="M600 2115 l0 -155 100 0 100 0 0 -36 c0 -28 -3 -35 -15 -30 -18 7
-18 -2 0 -34 8 -14 14 -28 15 -32 0 -5 -112 -8 -250 -8 l-250 0 0 -130 0 -130
250 0 250 0 0 -36 c0 -28 -3 -35 -15 -30 -18 7 -18 -2 0 -34 8 -14 14 -28 15
-32 0 -5 -56 -8 -125 -8 l-125 0 0 -80 0 -80 255 0 255 0 0 80 0 80 -125 0
c-69 0 -125 3 -125 8 1 4 7 18 15 32 18 32 18 41 0 34 -12 -5 -15 2 -15 30 l0
36 250 0 250 0 0 130 0 130 -250 0 c-137 0 -250 3 -250 8 1 4 7 18 15 32 18
32 18 41 0 34 -12 -5 -15 2 -15 30 l0 36 100 0 100 0 0 75 c0 41 3 75 8 75 4
-1 18 -7 32 -15 32 -18 41 -18 34 0 -5 13 15 15 146 15 152 0 181 -5 208 -39
11 -14 11 -14 6 2 -13 38 -55 47 -215 47 -130 0 -150 2 -145 15 7 18 -2 18
-34 0 -14 -8 -28 -14 -32 -15 -5 0 -8 34 -8 75 l0 75 -205 0 -205 0 0 -155z
m400 0 l0 -145 -195 0 -195 0 0 145 0 145 195 0 195 0 0 -145z m300 -425 l0
-120 -495 0 -495 0 0 120 0 120 495 0 495 0 0 -120z m-250 -350 l0 -70 -245 0
-245 0 0 70 0 70 245 0 245 0 0 -70z"/>
<path d="M694 2128 c1 -39 4 -43 25 -43 13 0 25 6 27 13 1 7 0 8 -3 2 -2 -5
-13 -10 -23 -10 -15 0 -20 9 -23 40 l-4 40 1 -42z"/>
<path d="M781 2156 c-12 -14 -2 -27 32 -39 27 -10 20 2 -9 13 -28 11 -23 35 7
27 11 -3 17 -1 13 4 -8 13 -30 11 -43 -5z"/>
<path d="M878 2163 c12 -2 22 -11 22 -18 0 -7 -10 -15 -22 -17 -22 -3 -22 -4
3 -9 23 -5 26 -3 25 20 -1 20 -6 26 -26 28 -22 1 -22 1 -2 -4z"/>
<path d="M805 2090 c-16 -7 -17 -9 -3 -9 9 -1 20 4 23 9 7 11 7 11 -20 0z"/>
<path d="M880 2090 c-23 -7 -23 -8 -3 -9 12 -1 25 4 28 9 3 6 5 10 3 9 -2 -1
-14 -5 -28 -9z"/>
<path d="M337 1734 c-15 -15 -6 -34 18 -40 35 -9 34 -38 -1 -31 -16 3 -22 1
-16 -5 15 -15 46 -5 50 15 2 11 -6 20 -22 27 -14 5 -26 14 -26 20 0 13 37 13
43 0 3 -6 4 -5 3 2 -3 14 -38 23 -49 12z"/>
<path d="M643 1695 c0 -27 2 -38 4 -22 2 15 2 37 0 50 -2 12 -4 0 -4 -28z"/>
<path d="M701 1693 c1 -26 4 -38 6 -26 3 13 13 23 26 25 34 5 29 42 -5 46 -27
3 -28 2 -27 -45z m49 22 c0 -8 -9 -15 -20 -15 -11 0 -20 7 -20 15 0 8 9 15 20
15 11 0 20 -7 20 -15z"/>
<path d="M413 1685 c0 -22 2 -30 4 -17 2 12 2 30 0 40 -3 9 -5 -1 -4 -23z"/>
<path d="M446 1712 c-2 -4 4 -8 15 -8 10 0 19 4 19 8 0 4 -6 8 -14 8 -8 0 -17
-4 -20 -8z"/>
<path d="M501 1681 c1 -35 2 -35 8 -7 9 42 29 44 34 4 l5 -33 -2 35 c-1 29 -5
35 -23 36 -20 1 -23 -3 -22 -35z"/>
<path d="M576 1711 c-3 -5 3 -7 14 -4 11 3 20 1 20 -5 0 -5 -9 -12 -20 -15
-30 -8 -26 -37 5 -35 22 2 26 7 23 33 -3 30 -30 47 -42 26z m29 -41 c-3 -5
-10 -10 -16 -10 -5 0 -9 5 -9 10 0 6 7 10 16 10 8 0 12 -4 9 -10z"/>
<path d="M781 1683 c2 -35 2 -35 6 -8 3 16 10 33 16 37 8 5 6 8 -5 8 -14 0
-18 -8 -17 -37z"/>
<path d="M824 1706 c-9 -23 0 -51 17 -54 19 -4 32 23 24 49 -7 22 -33 25 -41
5z m31 -21 c0 -10 -6 -20 -12 -22 -8 -3 -13 5 -13 22 0 17 5 25 13 23 6 -3 12
-13 12 -23z"/>
<path d="M900 1716 c0 -2 7 -7 16 -10 8 -3 12 -2 9 4 -6 10 -25 14 -25 6z"/>
<path d="M963 1714 c24 -8 22 -28 -3 -21 -12 3 -20 0 -20 -8 0 -8 9 -11 25 -7
31 5 30 36 0 39 -16 1 -16 1 -2 -3z"/>
<path d="M1014 1708 c-4 -6 0 -16 9 -23 22 -16 21 -22 0 -28 -16 -4 -16 -5 -1
-6 24 -2 34 20 15 34 -21 15 -22 29 -1 21 8 -3 12 -2 9 4 -8 13 -22 13 -31 -2z"/>
<path d="M1074 1708 c-4 -6 0 -16 9 -23 22 -16 21 -22 0 -28 -16 -4 -16 -5 -1
-6 24 -2 34 20 15 34 -21 15 -22 29 -1 21 8 -3 12 -2 9 4 -8 13 -22 13 -31 -2z"/>
<path d="M1133 1685 c0 -22 2 -30 4 -17 2 12 2 30 0 40 -3 9 -5 -1 -4 -23z"/>
<path d="M1162 1683 l1 -38 4 33 c3 24 8 32 19 28 8 -3 14 -1 14 4 0 6 -9 10
-20 10 -17 0 -20 -6 -18 -37z"/>
<path d="M1243 1713 c12 -3 17 -14 17 -38 0 -27 -5 -35 -22 -38 -20 -5 -20 -5
2 -4 22 2 25 7 28 45 3 38 1 42 -20 41 -17 -1 -18 -3 -5 -6z"/>
<path d="M881 1684 c0 -11 3 -14 6 -6 3 7 2 16 -1 19 -3 4 -6 -2 -5 -13z"/>
<path d="M1221 1684 c0 -11 3 -14 6 -6 3 7 2 16 -1 19 -3 4 -6 -2 -5 -13z"/>
<path d="M455 1654 c15 -11 15 -13 1 -17 -14 -4 -14 -5 0 -3 24 2 26 32 2 32
-17 0 -18 -1 -3 -12z"/>
<path d="M905 1660 c-16 -7 -17 -9 -3 -9 9 -1 20 4 23 9 7 11 7 11 -20 0z"/>
<path d="M965 1660 c-16 -7 -17 -9 -3 -9 9 -1 20 4 23 9 7 11 7 11 -20 0z"/>
<path d="M709 1366 c-8 -18 -8 -29 1 -42 11 -18 11 -18 6 0 -11 33 3 58 30 53
13 -2 21 0 18 4 -11 18 -45 8 -55 -15z"/>
<path d="M804 1348 c1 -39 4 -43 25 -43 13 0 25 6 27 13 1 7 0 8 -3 2 -2 -5
-13 -10 -23 -10 -15 0 -20 9 -23 40 l-4 40 1 -42z"/>
<path d="M759 1341 c17 -11 6 -31 -16 -31 -9 0 -14 -3 -10 -6 3 -3 15 -3 26 1
26 8 28 45 4 45 -14 0 -15 -2 -4 -9z"/>
<path d="M2887 2162 c6 -4 13 -25 16 -47 l4 -40 1 42 c2 30 7 43 20 46 9 3 1
5 -18 6 -19 0 -30 -3 -23 -7z"/>
<path d="M3053 2115 c0 -22 2 -30 4 -17 2 12 2 30 0 40 -3 9 -5 -1 -4 -23z"/>
<path d="M3071 2111 c1 -35 2 -35 8 -7 9 42 29 44 34 4 l5 -33 -2 35 c-1 29
-5 35 -23 36 -20 1 -23 -3 -22 -35z"/>
<path d="M2963 2115 c0 -8 4 -12 9 -9 4 3 8 9 8 15 0 5 -4 9 -8 9 -5 0 -9 -7
-9 -15z"/>
<path d="M1994 1928 c1 -39 4 -43 25 -43 13 0 25 6 27 13 1 7 0 8 -3 2 -2 -5
-13 -10 -23 -10 -15 0 -20 9 -23 40 l-4 40 1 -42z"/>
<path d="M2081 1956 c-12 -14 -2 -27 32 -39 27 -10 20 2 -9 13 -28 11 -23 35
7 27 11 -3 17 -1 13 4 -8 13 -30 11 -43 -5z"/>
<path d="M2178 1963 c12 -2 22 -11 22 -18 0 -7 -10 -15 -22 -17 -22 -3 -22 -4
3 -9 23 -5 26 -3 25 20 -1 20 -6 26 -26 28 -22 1 -22 1 -2 -4z"/>
<path d="M2105 1890 c-16 -7 -17 -9 -3 -9 9 -1 20 4 23 9 7 11 7 11 -20 0z"/>
<path d="M2180 1890 c-23 -7 -23 -8 -3 -9 12 -1 25 4 28 9 3 6 5 10 3 9 -2 -1
-14 -5 -28 -9z"/>
<path d="M2841 1753 c1 -27 4 -38 6 -25 2 12 10 22 17 22 8 0 21 -10 30 -22
l17 -23 -11 23 c-6 12 -9 26 -6 31 3 4 -6 6 -19 3 -19 -3 -25 0 -25 13 0 13 6
16 25 13 13 -3 22 -1 19 3 -3 5 -16 9 -30 9 -22 0 -24 -3 -23 -47z"/>
<path d="M3148 1790 c-5 -17 3 -80 11 -80 7 0 6 79 -2 86 -3 3 -7 0 -9 -6z"/>
<path d="M3024 1766 c-9 -23 0 -51 17 -54 19 -4 32 23 24 49 -7 22 -33 25 -41
5z m31 -21 c0 -10 -6 -20 -12 -22 -8 -3 -13 5 -13 22 0 17 5 25 13 23 6 -3 12
-13 12 -23z"/>
<path d="M3084 1751 c0 -21 7 -36 16 -38 10 -3 11 -2 3 4 -6 4 -13 22 -16 38
-4 27 -5 27 -3 -4z"/>
<path d="M3123 1745 c0 -22 2 -30 4 -17 2 12 2 30 0 40 -3 9 -5 -1 -4 -23z"/>
<path d="M2933 1745 c0 -8 4 -12 9 -9 4 3 8 9 8 15 0 5 -4 9 -8 9 -5 0 -9 -7
-9 -15z"/>
<path d="M10761 3544 c-1 -6 7 -31 16 -55 14 -37 17 -95 21 -345 l4 -301 -24
-37 c-17 -27 -30 -36 -50 -36 -23 0 -28 -4 -28 -25 l0 -25 -617 -3 -618 -2
618 -3 617 -2 0 -45 0 -45 -110 0 c-123 0 -158 -11 -178 -55 -8 -17 -12 -83
-12 -185 l0 -160 -504 0 c-342 0 -513 -4 -535 -11 -45 -16 -61 -54 -61 -144 0
-77 -10 -109 -39 -133 -14 -11 -14 -11 2 -6 31 11 47 58 47 138 0 90 12 121
53 136 19 6 208 10 533 10 l504 0 0 -160 c0 -169 9 -210 47 -224 16 -5 16 -5
2 6 -37 30 -39 51 -39 382 0 217 4 333 11 349 17 38 50 47 169 47 l110 0 0
-25 c0 -21 5 -25 28 -25 20 0 33 -9 50 -35 21 -34 22 -41 22 -310 0 -269 -1
-276 -22 -310 -17 -26 -30 -35 -50 -35 -23 0 -28 -4 -28 -25 0 -24 0 -24 -117
-28 l-118 -3 118 -2 117 -2 0 -45 0 -45 -160 0 c-102 0 -168 -4 -185 -12 -44
-20 -55 -55 -53 -170 l2 -103 6 110 c3 61 9 117 13 126 15 32 56 39 217 39
l160 0 0 -25 c0 -21 5 -25 28 -25 20 0 33 -9 50 -36 l23 -36 -3 -551 c-3 -493
-6 -557 -21 -596 -9 -24 -17 -49 -16 -55 0 -6 10 14 22 44 20 53 21 72 25 600
l3 544 22 -34 22 -35 3 127 c1 70 1 187 0 260 l-3 133 -22 -35 -23 -35 0 260
0 260 23 -35 22 -35 3 133 c1 73 1 190 0 260 l-3 127 -21 -34 -22 -34 -4 294
c-4 267 -7 299 -26 349 -11 30 -21 50 -21 44z m87 -991 l-3 -117 -42 65 -43
65 0 99 0 99 43 65 42 65 3 -111 c1 -62 1 -165 0 -230z m-98 112 c0 -88 -1
-95 -20 -95 -19 0 -20 7 -20 95 0 88 1 95 20 95 19 0 20 -7 20 -95z m98 -1012
l-3 -117 -42 65 -43 65 0 99 0 99 43 65 42 65 3 -111 c1 -62 1 -165 0 -230z
m-98 112 c0 -88 -1 -95 -20 -95 -19 0 -20 7 -20 95 0 88 1 95 20 95 19 0 20
-7 20 -95z"/>
<path d="M10117 3082 c6 -4 13 -25 16 -47 l4 -40 1 42 c2 30 7 43 20 46 9 3 1
5 -18 6 -19 0 -30 -3 -23 -7z"/>
<path d="M10538 3080 c-6 -18 3 -80 11 -80 4 0 6 14 3 30 -3 18 0 30 7 30 6 0
11 -13 11 -30 0 -16 3 -30 8 -30 6 0 7 35 3 85 -1 6 -6 3 -11 -5 -8 -12 -11
-13 -19 -1 -6 10 -10 10 -13 1z"/>
<path d="M10181 3033 c2 -35 2 -35 6 -8 3 16 10 33 16 37 8 5 6 8 -5 8 -14 0
-18 -8 -17 -37z"/>
<path d="M10226 3061 c-4 -5 3 -7 14 -4 23 6 26 13 6 13 -8 0 -17 -4 -20 -9z"/>
<path d="M10290 3060 c0 -5 6 -7 14 -4 11 4 16 -4 19 -28 l4 -33 1 38 c2 31
-1 37 -18 37 -11 0 -20 -4 -20 -10z"/>
<path d="M10354 3058 c-4 -6 0 -16 9 -23 22 -16 21 -22 0 -28 -16 -4 -16 -5
-1 -6 24 -2 34 20 15 34 -21 15 -22 29 -1 21 8 -3 12 -2 9 4 -8 13 -22 13 -31
-2z"/>
<path d="M10413 3035 c0 -22 2 -30 4 -17 2 12 2 30 0 40 -3 9 -5 -1 -4 -23z"/>
<path d="M10439 3061 c8 -5 20 -7 27 -4 8 3 14 -6 17 -24 l4 -28 -1 30 c-1 26
-5 30 -31 32 -20 1 -25 -1 -16 -6z"/>
<path d="M10513 3035 c0 -22 2 -30 4 -17 2 12 2 30 0 40 -3 9 -5 -1 -4 -23z"/>
<path d="M10612 3058 c-16 -16 -15 -33 3 -48 13 -10 18 -11 28 -1 9 10 8 11
-4 6 -10 -4 -20 -2 -24 4 -3 7 3 11 17 12 23 1 23 1 -2 8 -17 5 -21 9 -12 15
6 4 17 4 24 0 7 -4 8 -3 4 4 -9 15 -19 15 -34 0z"/>
<path d="M10671 3033 c2 -35 2 -35 6 -8 3 16 10 33 16 37 8 5 6 8 -5 8 -14 0
-18 -8 -17 -37z"/>
<path d="M10220 3020 c0 -15 6 -19 24 -18 14 1 22 6 20 10 -3 4 -11 5 -19 1
-8 -3 -15 0 -15 5 0 6 8 13 18 15 13 4 11 5 -5 6 -17 1 -23 -5 -23 -19z"/>
<path d="M10227 2934 c-15 -15 -6 -34 18 -40 35 -9 34 -38 -1 -31 -16 3 -22 1
-16 -5 15 -15 46 -5 50 15 2 11 -6 20 -22 27 -14 5 -26 14 -26 20 0 13 37 13
43 0 3 -6 4 -5 3 2 -3 14 -38 23 -49 12z"/>
<path d="M10307 2914 c-4 -4 -7 -18 -7 -31 0 -26 26 -41 42 -25 8 8 5 9 -11 5
-12 -3 -21 -1 -21 6 0 6 9 11 21 11 14 0 19 5 17 17 -3 19 -29 29 -41 17z m33
-14 c0 -5 -7 -10 -15 -10 -8 0 -15 5 -15 10 0 6 7 10 15 10 8 0 15 -4 15 -10z"/>
<path d="M10372 2883 l1 -38 4 33 c3 24 8 32 19 28 8 -3 14 -1 14 4 0 6 -9 10
-20 10 -17 0 -20 -6 -18 -37z"/>
<path d="M10435 2910 c-9 -15 4 -30 23 -29 15 1 15 2 0 6 -10 2 -18 8 -18 13
0 5 8 11 18 13 15 4 15 5 0 6 -9 0 -20 -3 -23 -9z"/>
<path d="M10496 2902 c-4 -11 -4 -27 0 -36 8 -20 36 -17 41 4 4 12 3 13 -5 1
-11 -16 -32 -7 -32 14 0 21 21 30 32 14 8 -12 9 -11 5 1 -6 23 -34 24 -41 2z"/>
<path d="M10561 2883 c2 -35 2 -35 6 -8 3 16 10 33 16 37 8 5 6 8 -5 8 -14 0
-18 -8 -17 -37z"/>
<path d="M11024 2905 c-4 -11 6 -29 29 -53 55 -59 71 -98 72 -177 0 -59 -5
-78 -30 -124 -16 -29 -40 -60 -52 -68 -26 -17 -31 -53 -8 -53 27 0 93 80 116
138 38 102 14 227 -60 305 -38 41 -60 52 -67 32z"/>
<path d="M10438 2858 c5 -5 16 -8 23 -6 8 3 3 7 -10 11 -17 4 -21 3 -13 -5z"/>
<path d="M10964 2839 c-3 -6 7 -25 24 -42 42 -45 52 -69 52 -122 0 -55 -24
-110 -56 -132 -27 -17 -31 -38 -9 -47 25 -9 82 58 100 116 21 72 7 140 -41
197 -36 41 -57 50 -70 30z"/>
<path d="M10914 2776 c-4 -9 5 -29 20 -47 33 -39 33 -78 1 -113 -40 -43 -31
-70 16 -46 50 27 64 136 23 181 -30 33 -53 42 -60 25z"/>
<path d="M8342 2673 c-43 -45 -39 -50 6 -9 20 18 49 58 40 55 -2 0 -23 -21
-46 -46z"/>
<path d="M10901 2670 c0 -33 1 -34 11 -12 8 17 8 26 0 34 -9 9 -12 4 -11 -22z"/>
<path d="M5233 2618 c16 -10 3028 -10 3044 0 6 4 -679 7 -1522 7 -843 0 -1528
-3 -1522 -7z"/>
<path d="M7652 2408 l-2 -188 -285 0 c-310 0 -329 -3 -353 -55 -7 -15 -12 -72
-12 -135 l0 -110 -95 0 -95 0 0 110 c0 63 -5 120 -12 135 -25 55 -22 55 -593
55 -571 0 -568 0 -593 -55 -8 -18 -12 -98 -12 -250 0 -152 4 -232 12 -250 25
-55 22 -55 593 -55 571 0 568 0 593 55 7 15 12 72 12 135 l0 110 95 0 95 0 0
-110 c0 -63 5 -120 12 -135 23 -51 45 -55 326 -55 l259 0 6 -82 c4 -46 7 -119
8 -163 1 -44 5 -91 9 -105 6 -18 8 -11 5 25 -3 28 -7 112 -10 188 l-6 137 261
0 c283 0 305 4 328 55 7 15 12 72 12 135 l0 110 518 3 517 2 -517 3 -518 2 0
110 c0 123 -11 158 -55 178 -18 8 -100 12 -260 12 l-235 0 -3 188 -2 187 -3
-187z m-881 -227 l29 -29 0 -237 0 -237 -29 -29 -29 -29 -537 0 -537 0 -29 29
-29 29 0 237 0 237 29 29 29 29 537 0 537 0 29 -29z m1400 0 l29 -29 0 -237 0
-237 -29 -29 -29 -29 -537 0 -537 0 -29 29 -29 29 0 237 0 237 29 29 29 29
537 0 537 0 29 -29z"/>
<path d="M5749 1953 c-8 -10 -9 -14 -2 -10 8 5 13 -5 16 -30 3 -35 4 -34 5 10
2 52 1 55 -19 30z"/>
<path d="M5818 1963 c7 -3 16 -2 19 1 4 3 -2 6 -13 5 -11 0 -14 -3 -6 -6z"/>
<path d="M6603 1925 c0 -27 2 -38 4 -22 2 15 2 37 0 50 -2 12 -4 0 -4 -28z"/>
<path d="M5823 1920 c-29 -36 -29 -40 5 -39 24 2 25 2 4 6 l-24 5 23 24 c12
13 21 26 18 28 -2 2 -14 -9 -26 -24z"/>
<path d="M5982 1905 c-1 -27 2 -45 6 -39 4 6 15 13 25 17 21 8 20 59 -1 63 -7
1 -8 0 -2 -3 16 -7 12 -53 -4 -53 -9 0 -16 13 -19 33 -3 23 -4 18 -5 -18z"/>
<path d="M6054 1936 c-9 -23 0 -51 17 -54 19 -4 32 23 24 49 -7 22 -33 25 -41
5z m31 -21 c0 -10 -6 -20 -12 -22 -8 -3 -13 5 -13 22 0 17 5 25 13 23 6 -3 12
-13 12 -23z"/>
<path d="M6207 1944 c-4 -4 -7 -18 -7 -31 0 -26 26 -41 42 -25 8 8 5 9 -11 5
-12 -3 -21 -1 -21 6 0 6 9 11 21 11 14 0 19 5 17 17 -3 19 -29 29 -41 17z m33
-14 c0 -5 -7 -10 -15 -10 -8 0 -15 5 -15 10 0 6 7 10 15 10 8 0 15 -4 15 -10z"/>
<path d="M6271 1913 c2 -35 2 -35 6 -8 3 16 10 33 16 37 8 5 6 8 -5 8 -14 0
-18 -8 -17 -37z"/>
<path d="M6344 1938 c-4 -6 0 -16 9 -23 22 -16 21 -22 0 -28 -16 -4 -16 -5 -1
-6 24 -2 34 20 15 34 -21 15 -22 29 -1 21 8 -3 12 -2 9 4 -8 13 -22 13 -31 -2z"/>
<path d="M6403 1918 c1 -26 7 -33 25 -34 19 -1 22 3 21 35 -1 35 -2 35 -8 7
-8 -40 -28 -44 -35 -7 l-6 31 3 -32z"/>
<path d="M6470 1903 c0 -27 4 -43 8 -37 4 6 14 14 22 17 12 4 11 6 -2 6 -12 1
-18 9 -18 25 0 15 7 26 18 29 13 4 11 5 -5 6 -21 1 -23 -4 -23 -46z"/>
<path d="M6531 1900 c0 -25 3 -38 7 -30 4 8 13 15 21 15 8 0 16 7 18 15 4 13
3 13 -6 0 -8 -11 -13 -12 -22 -3 -16 16 -3 47 17 39 8 -3 12 -2 9 3 -3 6 -14
9 -25 8 -17 -1 -20 -8 -19 -47z"/>
<path d="M5881 1920 c0 -8 3 -21 8 -29 7 -11 11 -10 20 7 14 27 14 43 -1 17
-11 -19 -11 -19 -19 0 -5 13 -8 15 -8 5z"/>
<path d="M6511 1914 c0 -11 3 -14 6 -6 3 7 2 16 -1 19 -3 4 -6 -2 -5 -13z"/>
<path d="M6643 1893 c-3 -10 -8 -22 -11 -27 -3 -5 0 -6 5 -3 11 7 25 47 17 47
-3 0 -7 -8 -11 -17z"/>
<path d="M6120 1889 c0 -5 5 -7 10 -4 6 3 10 8 10 11 0 2 -4 4 -10 4 -5 0 -10
-5 -10 -11z"/>
<path d="M7180 1995 c0 -41 2 -45 24 -45 14 0 27 4 30 9 3 4 -6 6 -19 3 -23
-4 -25 -1 -25 33 0 34 2 37 25 33 13 -3 22 -1 19 3 -3 5 -16 9 -30 9 -22 0
-24 -4 -24 -45z"/>
<path d="M7403 1995 c0 -27 2 -38 4 -22 2 15 2 37 0 50 -2 12 -4 0 -4 -28z"/>
<path d="M7493 2033 c15 -2 27 -11 27 -19 0 -8 -11 -14 -27 -15 -26 0 -27 -1
-6 -9 12 -5 26 -17 32 -27 6 -10 11 -13 11 -6 0 6 -5 15 -10 18 -8 5 -7 11 1
21 18 22 3 44 -28 43 l-28 -2 28 -4z"/>
<path d="M7643 1995 c0 -27 2 -38 4 -22 2 15 2 37 0 50 -2 12 -4 0 -4 -28z"/>
<path d="M7723 2033 c9 -2 23 -2 30 0 6 3 -1 5 -18 5 -16 0 -22 -2 -12 -5z"/>
<path d="M7264 1991 c0 -21 7 -36 16 -38 10 -3 11 -2 3 4 -6 4 -13 22 -16 38
-4 27 -5 27 -3 -4z"/>
<path d="M7303 1985 c0 -22 2 -30 4 -17 2 12 2 30 0 40 -3 9 -5 -1 -4 -23z"/>
<path d="M7336 2011 c-3 -5 3 -7 14 -4 11 3 20 1 20 -5 0 -5 -9 -12 -20 -15
-30 -8 -26 -37 5 -35 22 2 26 7 23 33 -3 30 -30 47 -42 26z m29 -41 c-3 -5
-10 -10 -16 -10 -5 0 -9 5 -9 10 0 6 7 10 16 10 8 0 12 -4 9 -10z"/>
<path d="M7556 2011 c-3 -5 3 -7 14 -4 11 3 20 1 20 -5 0 -5 -9 -12 -20 -15
-30 -8 -26 -37 5 -35 22 2 26 7 23 33 -3 30 -30 47 -42 26z m29 -41 c-3 -5
-10 -10 -16 -10 -5 0 -9 5 -9 10 0 6 7 10 16 10 8 0 12 -4 9 -10z"/>
<path d="M7623 1985 c0 -22 2 -30 4 -17 2 12 2 30 0 40 -3 9 -5 -1 -4 -23z"/>
<path d="M7786 2002 c-4 -11 -4 -27 0 -36 8 -20 36 -17 41 4 4 12 3 13 -5 1
-11 -16 -32 -7 -32 14 0 21 21 30 32 14 8 -12 9 -11 5 1 -6 23 -34 24 -41 2z"/>
<path d="M7947 2013 c-16 -15 -5 -33 19 -33 20 0 25 4 20 16 -3 9 -6 18 -6 20
0 7 -26 5 -33 -3z m28 -13 c3 -5 -1 -10 -9 -10 -9 0 -16 5 -16 10 0 6 4 10 9
10 6 0 13 -4 16 -10z"/>
<path d="M8001 1983 c2 -35 2 -35 6 -8 3 16 10 33 16 37 8 5 6 8 -5 8 -14 0
-18 -8 -17 -37z"/>
<path d="M7241 1994 c0 -11 3 -14 6 -6 3 7 2 16 -1 19 -3 4 -6 -2 -5 -13z"/>
<path d="M7723 1993 c9 -2 23 -2 30 0 6 3 -1 5 -18 5 -16 0 -22 -2 -12 -5z"/>
<path d="M7428 1983 c7 -3 16 -2 19 1 4 3 -2 6 -13 5 -11 0 -14 -3 -6 -6z"/>
<path d="M7947 1958 c2 -5 10 -8 18 -8 8 0 16 3 18 8 3 4 -5 7 -18 7 -13 0
-21 -3 -18 -7z"/>
<path d="M7450 1876 c-15 -20 -9 -56 12 -70 14 -8 21 -6 35 9 16 17 17 18 1 6
-25 -18 -48 -7 -48 24 0 31 24 42 48 24 15 -13 16 -12 3 4 -16 21 -35 22 -51
3z"/>
<path d="M7748 1880 c-5 -17 3 -80 11 -80 7 0 6 79 -2 86 -3 3 -7 0 -9 -6z"/>
<path d="M7533 1835 c0 -22 2 -30 4 -17 2 12 2 30 0 40 -3 9 -5 -1 -4 -23z"/>
<path d="M7551 1833 c2 -35 2 -35 6 -8 3 16 10 33 16 37 8 5 6 8 -5 8 -14 0
-18 -8 -17 -37z"/>
<path d="M7610 1866 c0 -2 7 -7 16 -10 8 -3 12 -2 9 4 -6 10 -25 14 -25 6z"/>
<path d="M7654 1841 c0 -21 7 -36 16 -38 10 -3 11 -2 3 4 -6 4 -13 22 -16 38
-4 27 -5 27 -3 -4z"/>
<path d="M7693 1835 c0 -22 2 -30 4 -17 2 12 2 30 0 40 -3 9 -5 -1 -4 -23z"/>
<path d="M7723 1835 c0 -22 2 -30 4 -17 2 12 2 30 0 40 -3 9 -5 -1 -4 -23z"/>
<path d="M7591 1834 c0 -11 3 -14 6 -6 3 7 2 16 -1 19 -3 4 -6 -2 -5 -13z"/>
<path d="M7615 1810 c-16 -7 -17 -9 -3 -9 9 -1 20 4 23 9 7 11 7 11 -20 0z"/>
<path d="M11008 1953 c-60 -63 -82 -117 -82 -203 -1 -63 4 -84 27 -132 35 -71
92 -125 113 -107 13 10 10 18 -19 48 -52 54 -80 117 -81 181 0 76 19 126 71
181 42 45 49 69 19 69 -6 0 -28 -17 -48 -37z"/>
<path d="M11073 1898 c-45 -48 -63 -90 -63 -149 0 -82 58 -179 106 -179 21 0
17 34 -6 48 -28 17 -60 85 -60 126 0 48 16 85 52 123 19 19 28 38 25 47 -9 23
-19 20 -54 -16z"/>
<path d="M11126 1829 c-34 -40 -41 -72 -27 -119 11 -36 51 -80 73 -80 20 0 20
33 1 49 -49 39 -51 84 -6 133 25 26 24 48 -2 48 -7 0 -25 -14 -39 -31z"/>
<path d="M11182 1745 c0 -16 2 -22 5 -12 2 9 2 23 0 30 -3 6 -5 -1 -5 -18z"/>
<path d="M10303 1413 c15 -2 27 -11 27 -19 0 -8 -11 -14 -27 -15 -26 0 -27 -1
-6 -9 12 -5 26 -17 32 -27 6 -10 11 -13 11 -6 0 6 -5 15 -10 18 -8 5 -7 11 1
21 18 22 3 44 -28 43 l-28 -2 28 -4z"/>
<path d="M10367 1394 c-4 -4 -7 -18 -7 -31 0 -26 26 -41 42 -25 8 8 5 9 -11 5
-12 -3 -21 -1 -21 6 0 6 9 11 21 11 14 0 19 5 17 17 -3 19 -29 29 -41 17z m33
-14 c0 -5 -7 -10 -15 -10 -8 0 -15 5 -15 10 0 6 7 10 15 10 8 0 15 -4 15 -10z"/>
<path d="M10434 1386 c-9 -23 0 -51 16 -52 9 0 10 1 3 3 -20 7 -16 51 5 56 16
4 16 5 -1 6 -10 0 -20 -5 -23 -13z"/>
<path d="M10497 1393 c-16 -15 -5 -33 19 -33 20 0 25 4 20 16 -3 9 -6 18 -6
20 0 7 -26 5 -33 -3z m28 -13 c3 -5 -1 -10 -9 -10 -9 0 -16 5 -16 10 0 6 4 10
9 10 6 0 13 -4 16 -10z"/>
<path d="M10553 1365 c0 -22 2 -30 4 -17 2 12 2 30 0 40 -3 9 -5 -1 -4 -23z"/>
<path d="M10647 1394 c-4 -4 -7 -18 -7 -31 0 -26 26 -41 42 -25 8 8 5 9 -11 5
-12 -3 -21 -1 -21 6 0 6 9 11 21 11 14 0 19 5 17 17 -3 19 -29 29 -41 17z m33
-14 c0 -5 -7 -10 -15 -10 -8 0 -15 5 -15 10 0 6 7 10 15 10 8 0 15 -4 15 -10z"/>
<path d="M10711 1363 c2 -35 2 -35 6 -8 3 16 10 33 16 37 8 5 6 8 -5 8 -14 0
-18 -8 -17 -37z"/>
<path d="M10581 1374 c0 -11 3 -14 6 -6 3 7 2 16 -1 19 -3 4 -6 -2 -5 -13z"/>
<path d="M10497 1338 c2 -5 10 -8 18 -8 8 0 16 3 18 8 3 4 -5 7 -18 7 -13 0
-21 -3 -18 -7z"/>
<path d="M10590 1339 c0 -5 5 -7 10 -4 6 3 10 8 10 11 0 2 -4 4 -10 4 -5 0
-10 -5 -10 -11z"/>
<path d="M10327 1264 c-15 -15 -6 -34 18 -40 35 -9 34 -38 -1 -31 -16 3 -22 1
-16 -5 15 -15 46 -5 50 15 2 11 -6 20 -22 27 -14 5 -26 14 -26 20 0 13 37 13
43 0 3 -6 4 -5 3 2 -3 14 -38 23 -49 12z"/>
<path d="M10407 1244 c-4 -4 -7 -18 -7 -31 0 -26 26 -41 42 -25 8 8 5 9 -11 5
-12 -3 -21 -1 -21 6 0 6 9 11 21 11 14 0 19 5 17 17 -3 19 -29 29 -41 17z m33
-14 c0 -5 -7 -10 -15 -10 -8 0 -15 5 -15 10 0 6 7 10 15 10 8 0 15 -4 15 -10z"/>
<path d="M10472 1213 l1 -38 4 33 c3 24 8 32 19 28 8 -3 14 -1 14 4 0 6 -9 10
-20 10 -17 0 -20 -6 -18 -37z"/>
<path d="M10535 1240 c-9 -15 4 -30 23 -29 15 1 15 2 0 6 -10 2 -18 8 -18 13
0 5 8 11 18 13 15 4 15 5 0 6 -9 0 -20 -3 -23 -9z"/>
<path d="M10596 1232 c-4 -11 -4 -27 0 -36 8 -20 36 -17 41 4 4 12 3 13 -5 1
-11 -16 -32 -7 -32 14 0 21 21 30 32 14 8 -12 9 -11 5 1 -6 23 -34 24 -41 2z"/>
<path d="M10661 1213 c2 -35 2 -35 6 -8 3 16 10 33 16 37 8 5 6 8 -5 8 -14 0
-18 -8 -17 -37z"/>
<path d="M3712 1213 c-34 -7 -98 -75 -105 -113 -4 -18 -7 -110 -7 -206 0 -156
-2 -173 -17 -177 -16 -4 -16 -5 -1 -6 15 -1 17 -22 20 -198 3 -186 4 -200 25
-229 12 -17 35 -40 50 -50 27 -18 95 -19 2458 -19 l2430 0 -2430 5 c-2328 5
-2431 6 -2457 23 -59 41 -63 55 -66 270 l-4 197 96 0 96 0 0 -110 c0 -123 11
-158 55 -178 37 -17 1063 -17 1100 0 44 20 55 55 55 178 l0 110 195 0 195 0 0
-110 c0 -123 11 -158 55 -178 41 -19 1066 -17 1104 2 41 22 51 55 51 176 l0
110 195 0 195 0 0 -110 c0 -121 10 -154 51 -176 38 -19 1063 -21 1104 -2 44
20 55 55 55 178 l0 110 98 0 97 0 300 -200 300 -200 3 200 2 200 98 0 97 0
102 -68 103 -68 -100 -74 c-55 -41 -100 -76 -100 -78 0 -6 50 29 196 139 6 5
90 -45 205 -121 l194 -130 3 200 2 200 146 0 146 0 -4 -197 c-3 -186 -4 -200
-25 -229 -12 -17 -37 -38 -55 -47 -20 -10 -26 -17 -15 -17 26 0 93 72 100 110
4 18 7 110 7 206 l0 173 68 4 67 3 -67 2 -66 2 -4 198 c-3 217 -6 228 -72 275
l-31 22 -3135 1 c-1724 1 -3145 -1 -3158 -3z m6320 -26 c59 -41 63 -55 66
-269 l4 -198 -146 0 -146 0 0 73 0 73 65 48 c36 26 65 50 65 53 0 5 -27 -14
-100 -70 l-25 -19 -5 121 -5 121 -300 -200 -300 -200 -97 0 -98 0 -2 200 -3
200 -300 -200 -300 -200 -97 0 -98 0 0 110 c0 123 -11 158 -55 178 -41 19
-1066 17 -1104 -2 -41 -22 -51 -55 -51 -176 l0 -110 -195 0 -195 0 0 110 c0
121 -10 154 -51 176 -38 19 -1063 21 -1104 2 -44 -20 -55 -55 -55 -178 l0
-110 -195 0 -195 0 0 110 c0 123 -11 158 -55 178 -37 17 -1063 17 -1100 0 -44
-20 -55 -55 -55 -178 l0 -110 -95 0 -95 0 0 174 c0 95 3 188 6 206 8 37 63 96
96 103 13 2 1434 4 3158 3 3014 -1 3136 -2 3162 -19z m-1032 -472 c0 -212 -2
-385 -5 -385 -3 0 -134 86 -291 191 -193 128 -283 194 -276 201 15 15 556 377
565 377 4 1 7 -172 7 -384z m800 268 l-1 -118 -181 -135 c-99 -74 -186 -138
-193 -142 -17 -10 -210 121 -197 134 15 15 556 377 565 377 4 1 7 -52 7 -116z
m-4829 -2 l29 -29 0 -237 0 -237 -29 -29 -29 -29 -537 0 -537 0 -29 29 -29 29
0 237 0 237 29 29 29 29 537 0 537 0 29 -29z m1600 0 l29 -29 0 -237 0 -237
-29 -29 -29 -29 -537 0 -537 0 -29 29 -29 29 0 237 0 237 29 29 29 29 537 0
537 0 29 -29z m1600 0 l29 -29 0 -237 0 -237 -29 -29 -29 -29 -537 0 -537 0
-29 29 -29 29 0 237 0 237 29 29 29 29 537 0 537 0 29 -29z m1629 -391 c0
-143 -2 -260 -5 -260 -3 0 -87 54 -186 121 -153 102 -179 123 -168 134 23 23
343 264 352 264 4 1 7 -116 7 -259z"/>
<path d="M9937 1001 c-17 -6 -17 -8 -3 -20 9 -7 16 -20 16 -27 0 -25 16 -15
33 21 16 35 16 35 -6 34 -12 0 -30 -4 -40 -8z"/>
<path d="M4020 756 c-15 -20 -9 -56 12 -70 14 -8 21 -6 35 9 16 17 17 18 1 6
-25 -18 -48 -7 -48 24 0 31 24 42 48 24 15 -13 16 -12 3 4 -16 21 -35 22 -51
3z"/>
<path d="M4093 725 c0 -27 2 -38 4 -22 2 15 2 37 0 50 -2 12 -4 0 -4 -28z"/>
<path d="M4480 749 c-9 -16 -9 -28 -1 -45 10 -23 44 -33 55 -15 3 4 -5 6 -18
4 -26 -5 -42 21 -30 51 7 18 39 22 47 6 3 -6 4 -5 3 2 -5 23 -44 21 -56 -3z"/>
<path d="M4778 760 c-5 -17 3 -80 11 -80 7 0 6 79 -2 86 -3 3 -7 0 -9 -6z"/>
<path d="M4123 715 c0 -22 2 -30 4 -17 2 12 2 30 0 40 -3 9 -5 -1 -4 -23z"/>
<path d="M4150 703 c0 -27 4 -43 8 -37 4 6 14 14 22 17 12 4 11 6 -2 6 -12 1
-18 9 -18 25 0 15 7 26 18 29 13 4 11 5 -5 6 -21 1 -23 -4 -23 -46z"/>
<path d="M4211 700 c0 -25 3 -38 7 -30 4 8 13 15 21 15 8 0 16 7 18 15 4 13 3
13 -6 0 -8 -11 -13 -12 -22 -3 -16 16 -3 47 17 39 8 -3 12 -2 9 3 -3 6 -14 9
-25 8 -17 -1 -20 -8 -19 -47z"/>
<path d="M4283 715 c0 -22 2 -30 4 -17 2 12 2 30 0 40 -3 9 -5 -1 -4 -23z"/>
<path d="M4312 713 l1 -38 4 33 c3 24 8 32 19 28 8 -3 14 -1 14 4 0 6 -9 10
-20 10 -17 0 -20 -6 -18 -37z"/>
<path d="M4393 743 c12 -3 17 -14 17 -38 0 -27 -5 -35 -22 -38 -20 -5 -20 -5
2 -4 22 2 25 7 28 45 3 38 1 42 -20 41 -17 -1 -18 -3 -5 -6z"/>
<path d="M4563 715 c0 -22 2 -30 4 -17 2 12 2 30 0 40 -3 9 -5 -1 -4 -23z"/>
<path d="M4591 713 c2 -35 2 -35 6 -8 3 16 10 33 16 37 8 5 6 8 -5 8 -14 0
-18 -8 -17 -37z"/>
<path d="M4634 736 c-9 -23 0 -51 16 -52 9 0 10 1 3 3 -20 7 -16 51 5 56 16 4
16 5 -1 6 -10 0 -20 -5 -23 -13z"/>
<path d="M4692 723 c-2 -35 13 -52 31 -34 9 9 8 11 -5 6 -13 -5 -17 0 -21 27
l-4 33 -1 -32z"/>
<path d="M4753 715 c0 -22 2 -30 4 -17 2 12 2 30 0 40 -3 9 -5 -1 -4 -23z"/>
<path d="M4191 714 c0 -11 3 -14 6 -6 3 7 2 16 -1 19 -3 4 -6 -2 -5 -13z"/>
<path d="M4371 714 c0 -11 3 -14 6 -6 3 7 2 16 -1 19 -3 4 -6 -2 -5 -13z"/>
<path d="M5580 756 c-15 -20 -9 -56 12 -70 14 -8 21 -6 35 9 16 17 17 18 1 6
-25 -18 -48 -7 -48 24 0 31 24 42 48 24 15 -13 16 -12 3 4 -16 21 -35 22 -51
3z"/>
<path d="M5663 725 c0 -27 2 -38 4 -22 2 15 2 37 0 50 -2 12 -4 0 -4 -28z"/>
<path d="M6120 756 c-15 -20 -9 -56 12 -70 14 -8 21 -6 35 9 16 17 17 18 1 6
-25 -18 -48 -7 -48 24 0 31 24 42 48 24 15 -13 16 -12 3 4 -16 21 -35 22 -51
3z"/>
<path d="M6418 760 c-5 -17 3 -80 11 -80 7 0 6 79 -2 86 -3 3 -7 0 -9 -6z"/>
<path d="M5686 741 c-3 -5 3 -7 14 -4 11 3 20 1 20 -5 0 -5 -9 -12 -21 -15
-22 -6 -22 -29 -1 -33 7 -1 8 0 2 3 -15 7 -12 23 4 23 8 0 17 -8 20 -17 2 -10
4 -2 3 17 -2 34 -27 54 -41 31z"/>
<path d="M5753 715 c0 -22 2 -30 4 -17 2 12 2 30 0 40 -3 9 -5 -1 -4 -23z"/>
<path d="M5779 741 c8 -5 20 -7 27 -4 8 3 14 -6 17 -24 l4 -28 -1 30 c-1 26
-5 30 -31 32 -20 1 -25 -1 -16 -6z"/>
<path d="M5852 705 c-1 -27 2 -45 6 -39 4 6 15 13 25 17 21 8 20 59 -1 63 -7
1 -8 0 -2 -3 16 -7 12 -53 -4 -53 -9 0 -16 13 -19 33 -3 23 -4 18 -5 -18z"/>
<path d="M5923 715 c0 -22 2 -30 4 -17 2 12 2 30 0 40 -3 9 -5 -1 -4 -23z"/>
<path d="M5941 711 c1 -35 2 -35 8 -7 9 42 29 44 34 4 l5 -33 -2 35 c-1 29 -5
35 -23 36 -20 1 -23 -3 -22 -35z"/>
<path d="M6014 735 c-10 -26 1 -50 24 -51 18 -1 22 4 22 30 0 25 -4 32 -21 33
-11 1 -22 -4 -25 -12z m31 -20 c0 -10 -6 -20 -12 -22 -8 -3 -13 5 -13 22 0 17
5 25 13 23 6 -3 12 -13 12 -23z"/>
<path d="M6203 715 c0 -22 2 -30 4 -17 2 12 2 30 0 40 -3 9 -5 -1 -4 -23z"/>
<path d="M6221 713 c2 -35 2 -35 6 -8 3 16 10 33 16 37 8 5 6 8 -5 8 -14 0
-18 -8 -17 -37z"/>
<path d="M6280 746 c0 -2 7 -7 16 -10 8 -3 12 -2 9 4 -6 10 -25 14 -25 6z"/>
<path d="M6324 721 c0 -21 7 -36 16 -38 10 -3 11 -2 3 4 -6 4 -13 22 -16 38
-4 27 -5 27 -3 -4z"/>
<path d="M6363 715 c0 -22 2 -30 4 -17 2 12 2 30 0 40 -3 9 -5 -1 -4 -23z"/>
<path d="M6393 715 c0 -22 2 -30 4 -17 2 12 2 30 0 40 -3 9 -5 -1 -4 -23z"/>
<path d="M6261 714 c0 -11 3 -14 6 -6 3 7 2 16 -1 19 -3 4 -6 -2 -5 -13z"/>
<path d="M6285 690 c-16 -7 -17 -9 -3 -9 9 -1 20 4 23 9 7 11 7 11 -20 0z"/>
<path d="M6018 663 c6 -2 18 -2 25 0 6 3 1 5 -13 5 -14 0 -19 -2 -12 -5z"/>
<path d="M7218 763 c12 -2 22 -11 22 -18 0 -7 -10 -15 -22 -17 -22 -3 -22 -4
3 -9 23 -5 26 -3 25 20 -1 20 -6 26 -26 28 -22 1 -22 1 -2 -4z"/>
<path d="M7450 761 c0 -5 -9 -11 -21 -14 -30 -8 -23 -62 9 -63 20 -1 22 3 22
42 0 24 -2 44 -5 44 -3 0 -5 -4 -5 -9z m-5 -46 c0 -10 -6 -20 -12 -22 -8 -3
-13 5 -13 22 0 17 5 25 13 23 6 -3 12 -13 12 -23z"/>
<path d="M7761 723 c1 -27 4 -38 6 -26 2 13 13 24 26 26 l22 4 -22 2 c-33 2
-29 29 5 34 25 4 25 4 -5 6 -33 1 -33 1 -32 -46z"/>
<path d="M7863 725 c0 -27 2 -38 4 -22 2 15 2 37 0 50 -2 12 -4 0 -4 -28z"/>
<path d="M7888 760 c-5 -17 3 -80 11 -80 7 0 6 79 -2 86 -3 3 -7 0 -9 -6z"/>
<path d="M7276 741 c-3 -5 3 -7 14 -4 11 3 20 1 20 -5 0 -5 -9 -12 -21 -15
-22 -6 -22 -29 -1 -33 7 -1 8 0 2 3 -15 7 -12 23 4 23 8 0 17 -8 20 -17 2 -10
4 -2 3 17 -2 34 -27 54 -41 31z"/>
<path d="M7342 713 c1 -37 1 -37 5 -5 3 18 10 32 18 32 8 0 16 -14 18 -32 l5
-33 -2 35 c-1 28 -5 36 -23 38 -21 3 -23 -1 -21 -35z"/>
<path d="M7471 700 c0 -25 3 -38 7 -30 4 8 13 15 21 15 8 0 16 7 18 15 4 13 3
13 -6 0 -8 -11 -13 -12 -22 -3 -16 16 -3 47 17 39 8 -3 12 -2 9 3 -3 6 -14 9
-25 8 -17 -1 -20 -8 -19 -47z"/>
<path d="M7546 741 c-3 -5 3 -7 14 -4 11 3 20 1 20 -5 0 -5 -9 -12 -20 -15
-30 -8 -26 -37 5 -35 22 2 26 7 23 33 -3 30 -30 47 -42 26z m29 -41 c-3 -5
-10 -10 -16 -10 -5 0 -9 5 -9 10 0 6 7 10 16 10 8 0 12 -4 9 -10z"/>
<path d="M7610 746 c0 -2 9 -6 20 -9 11 -3 18 -1 14 4 -5 9 -34 13 -34 5z"/>
<path d="M7670 746 c0 -2 9 -6 20 -9 11 -3 18 -1 14 4 -5 9 -34 13 -34 5z"/>
<path d="M7833 715 c0 -22 2 -30 4 -17 2 12 2 30 0 40 -3 9 -5 -1 -4 -23z"/>
<path d="M7927 744 c-4 -4 -7 -18 -7 -31 0 -26 26 -41 42 -25 8 8 5 9 -11 5
-12 -3 -21 -1 -21 6 0 6 9 11 21 11 14 0 19 5 17 17 -3 19 -29 29 -41 17z m33
-14 c0 -5 -7 -10 -15 -10 -8 0 -15 5 -15 10 0 6 7 10 15 10 8 0 15 -4 15 -10z"/>
<path d="M7991 713 c2 -35 2 -35 6 -8 3 16 10 33 16 37 8 5 6 8 -5 8 -14 0
-18 -8 -17 -37z"/>
<path d="M7630 713 c15 -7 12 -21 -5 -26 -11 -4 -10 -4 2 -3 21 2 25 28 5 32
-7 1 -8 0 -2 -3z"/>
<path d="M7690 713 c15 -7 12 -21 -5 -26 -11 -4 -10 -4 2 -3 21 2 25 28 5 32
-7 1 -8 0 -2 -3z"/>
<path d="M7220 690 c-23 -7 -23 -8 -3 -9 12 -1 25 4 28 9 3 6 5 10 3 9 -2 -1
-14 -5 -28 -9z"/>
<path d="M10538 1188 c5 -5 16 -8 23 -6 8 3 3 7 -10 11 -17 4 -21 3 -13 -5z"/>
<path d="M10302 972 c-2 -184 -7 -212 -41 -240 -14 -11 -13 -12 5 -3 38 19 45
55 41 246 l-2 180 -3 -183z"/>
<path d="M3474 322 c23 -46 96 -142 96 -127 0 4 -14 23 -30 42 -17 18 -41 56
-55 83 -14 28 -28 50 -30 50 -3 0 6 -22 19 -48z"/>
<path d="M10729 328 c-12 -24 -37 -62 -55 -85 -19 -23 -34 -45 -34 -48 0 -4
17 14 39 41 37 47 87 134 76 134 -2 0 -14 -19 -26 -42z"/>
<path d="M8588 283 c7 -3 16 -2 19 1 4 3 -2 6 -13 5 -11 0 -14 -3 -6 -6z"/>
<path d="M8647 283 c-11 -10 -8 -71 3 -78 16 -10 40 14 40 39 0 32 -27 56 -43
39z m28 -38 c0 -16 -6 -30 -12 -32 -9 -3 -13 7 -13 32 0 25 4 35 13 33 6 -3
12 -17 12 -33z"/>
<path d="M8740 280 c0 -5 -6 -10 -14 -10 -18 0 -29 -31 -20 -54 3 -9 15 -16
25 -16 16 0 19 8 19 45 0 25 -2 45 -5 45 -3 0 -5 -4 -5 -10z m0 -45 c0 -26
-14 -33 -25 -15 -9 14 1 40 15 40 5 0 10 -11 10 -25z"/>
<path d="M8770 245 c0 -45 1 -46 28 -43 35 4 39 41 5 46 -13 2 -23 10 -23 18
0 16 36 19 43 4 3 -6 4 -5 3 2 -1 7 -15 14 -29 16 -26 3 -27 1 -27 -43z m50
-20 c0 -8 -9 -15 -20 -15 -11 0 -20 7 -20 15 0 8 9 15 20 15 11 0 20 -7 20
-15z"/>
<path d="M9588 283 c7 -3 16 -2 19 1 4 3 -2 6 -13 5 -11 0 -14 -3 -6 -6z"/>
<path d="M9647 283 c-11 -10 -8 -71 3 -78 16 -10 40 14 40 39 0 32 -27 56 -43
39z m28 -38 c0 -16 -6 -30 -12 -32 -9 -3 -13 7 -13 32 0 25 4 35 13 33 6 -3
12 -17 12 -33z"/>
<path d="M9740 280 c0 -5 -6 -10 -14 -10 -18 0 -29 -31 -20 -54 3 -9 15 -16
25 -16 16 0 19 8 19 45 0 25 -2 45 -5 45 -3 0 -5 -4 -5 -10z m0 -45 c0 -26
-14 -33 -25 -15 -9 14 1 40 15 40 5 0 10 -11 10 -25z"/>
<path d="M9770 245 c0 -45 1 -46 28 -43 35 4 39 41 5 46 -13 2 -23 10 -23 18
0 16 36 19 43 4 3 -6 4 -5 3 2 -1 7 -15 14 -29 16 -26 3 -27 1 -27 -43z m50
-20 c0 -8 -9 -15 -20 -15 -11 0 -20 7 -20 15 0 8 9 15 20 15 11 0 20 -7 20
-15z"/>
<path d="M8593 240 c-29 -36 -29 -40 5 -39 24 2 25 2 4 6 l-24 5 23 24 c12 13
21 26 18 28 -2 2 -14 -9 -26 -24z"/>
<path d="M9593 240 c-29 -36 -29 -40 5 -39 24 2 25 2 4 6 l-24 5 23 24 c12 13
21 26 18 28 -2 2 -14 -9 -26 -24z"/>
<path d="M8983 213 c82 -2 212 -2 290 0 78 1 12 3 -148 3 -159 0 -223 -2 -142
-3z"/>
<path d="M3621 144 c41 -34 139 -90 139 -79 0 2 -22 16 -50 30 -27 14 -65 38
-83 55 -19 16 -38 30 -42 30 -4 0 12 -16 36 -36z"/>
<path d="M10580 149 c-19 -17 -56 -42 -82 -55 -27 -13 -48 -27 -48 -29 0 -3
19 4 43 16 44 23 146 99 131 99 -5 -1 -25 -14 -44 -31z"/>
<path d="M8813 95 c0 -27 2 -38 4 -22 2 15 2 37 0 50 -2 12 -4 0 -4 -28z"/>
<path d="M9763 95 c0 -27 2 -38 4 -22 2 15 2 37 0 50 -2 12 -4 0 -4 -28z"/>
<path d="M9833 95 c0 -27 2 -38 4 -22 2 15 2 37 0 50 -2 12 -4 0 -4 -28z"/>
<path d="M8623 85 c0 -22 2 -30 4 -17 2 12 2 30 0 40 -3 9 -5 -1 -4 -23z"/>
<path d="M8723 114 c24 -8 22 -28 -3 -21 -12 3 -20 0 -20 -8 0 -8 9 -11 25 -7
31 5 30 36 0 39 -16 1 -16 1 -2 -3z"/>
<path d="M8774 106 c-8 -22 -1 -49 14 -52 7 -1 8 0 2 3 -14 7 -13 50 3 56 9 4
9 6 -1 6 -7 1 -15 -5 -18 -13z"/>
<path d="M9566 111 c-3 -5 3 -7 14 -4 11 3 20 1 20 -5 0 -5 -9 -12 -20 -15
-30 -8 -26 -37 5 -35 22 2 26 7 23 33 -3 30 -30 47 -42 26z m29 -41 c-3 -5
-10 -10 -16 -10 -5 0 -9 5 -9 10 0 6 7 10 16 10 8 0 12 -4 9 -10z"/>
<path d="M9631 83 c2 -35 2 -35 6 -8 3 16 10 33 16 37 8 5 6 8 -5 8 -14 0 -18
-8 -17 -37z"/>
<path d="M9673 85 c0 -22 2 -30 4 -17 2 12 2 30 0 40 -3 9 -5 -1 -4 -23z"/>
<path d="M9696 111 c-3 -5 3 -7 14 -4 11 3 20 1 20 -5 0 -5 -9 -12 -21 -15
-22 -6 -22 -29 -1 -33 7 -1 8 0 2 3 -15 7 -12 23 4 23 8 0 17 -8 20 -17 2 -10
4 -2 3 17 -2 34 -27 54 -41 31z"/>
<path d="M9790 113 c5 -2 10 -15 10 -28 0 -13 -5 -26 -10 -28 -6 -3 -5 -4 2
-3 7 2 13 15 13 31 0 16 -6 29 -13 31 -7 1 -8 0 -2 -3z"/>
<path d="M9873 114 c24 -8 22 -28 -3 -21 -12 3 -20 0 -20 -8 0 -8 9 -11 25 -7
31 5 30 36 0 39 -16 1 -16 1 -2 -3z"/>
<path d="M9501 94 c0 -11 3 -14 6 -6 3 7 2 16 -1 19 -3 4 -6 -2 -5 -13z"/>
<path d="M8653 85 c0 -8 4 -12 9 -9 4 3 8 9 8 15 0 5 -4 9 -8 9 -5 0 -9 -7 -9
-15z"/>
<path d="M8725 60 c-16 -7 -17 -9 -3 -9 9 -1 20 4 23 9 7 11 7 11 -20 0z"/>
<path d="M9510 59 c0 -5 5 -7 10 -4 6 3 10 8 10 11 0 2 -4 4 -10 4 -5 0 -10
-5 -10 -11z"/>
<path d="M9875 60 c-16 -7 -17 -9 -3 -9 9 -1 20 4 23 9 7 11 7 11 -20 0z"/>
<path d="M3820 37 l55 -22 3220 0 c3141 0 3222 0 3283 19 34 11 60 21 58 24
-3 2 -29 -4 -58 -14 -51 -18 -165 -19 -3278 -19 -3048 0 -3227 1 -3269 18 -24
9 -49 17 -55 16 -6 0 14 -10 44 -22z"/>
</g>
</svg>
