<?xml version="1.0" standalone="no"?>
<!DOCTYPE svg PUBLIC "-//W3C//DTD SVG 20010904//EN"
 "http://www.w3.org/TR/2001/REC-SVG-20010904/DTD/svg10.dtd">
<svg version="1.0" xmlns="http://www.w3.org/2000/svg"
 width="371.000000pt" height="121.000000pt" viewBox="0 0 371.000000 121.000000"
 preserveAspectRatio="xMidYMid meet">

<g transform="translate(0.000000,121.000000) scale(0.100000,-0.100000)"
fill="#000000" stroke="none">
<path d="M1243 1103 c12 -3 17 -16 19 -46 l1 -42 4 40 c3 22 10 43 16 47 7 4
-4 7 -23 7 -19 -1 -27 -3 -17 -6z"/>
<path d="M1700 1102 c0 -6 -10 -13 -22 -15 l-23 -4 23 -2 c18 -1 22 -7 22 -31
0 -16 3 -30 8 -30 8 0 7 78 -2 87 -3 4 -6 1 -6 -5z"/>
<path d="M2148 1100 c-5 -17 3 -80 11 -80 7 0 6 79 -2 86 -3 3 -7 0 -9 -6z"/>
<path d="M1310 1079 c0 -5 5 -7 10 -4 6 3 10 8 10 11 0 2 -4 4 -10 4 -5 0 -10
-5 -10 -11z"/>
<path d="M1363 1083 c23 -6 22 -19 -4 -26 -22 -6 -22 -29 -1 -33 7 -1 8 0 2 3
-5 2 -10 9 -10 14 0 14 28 11 33 -3 3 -7 6 2 6 20 1 27 -2 32 -21 31 -17 -1
-19 -2 -5 -6z"/>
<path d="M1412 1053 c1 -37 1 -37 5 -5 3 18 10 32 18 32 8 0 16 -14 18 -32 l5
-33 -2 35 c-1 28 -5 36 -23 38 -21 3 -23 -1 -21 -35z"/>
<path d="M1480 1086 c0 -2 9 -6 20 -9 11 -3 18 -1 14 4 -5 9 -34 13 -34 5z"/>
<path d="M1542 1053 c1 -35 2 -35 5 -7 3 26 8 31 33 31 25 0 30 -5 33 -31 4
-28 4 -28 3 4 -1 33 -3 35 -38 38 -38 2 -38 2 -36 -35z"/>
<path d="M1643 1055 c0 -22 2 -30 4 -17 2 12 2 30 0 40 -3 9 -5 -1 -4 -23z"/>
<path d="M1737 1084 c-4 -4 -7 -18 -7 -31 0 -26 26 -41 42 -25 8 8 5 9 -11 5
-12 -3 -21 -1 -21 6 0 6 9 11 21 11 14 0 19 5 17 17 -3 19 -29 29 -41 17z m33
-14 c0 -5 -7 -10 -15 -10 -8 0 -15 5 -15 10 0 6 7 10 15 10 8 0 15 -4 15 -10z"/>
<path d="M1801 1053 c2 -35 2 -35 6 -8 3 16 10 33 16 37 8 5 6 8 -5 8 -14 0
-18 -8 -17 -37z"/>
<path d="M1877 1083 c-4 -3 -7 -17 -7 -30 0 -26 26 -41 42 -25 8 8 5 9 -11 5
-17 -4 -21 -1 -21 20 0 16 7 27 18 30 14 4 14 5 1 6 -9 0 -19 -2 -22 -6z"/>
<path d="M1933 1055 c0 -22 2 -30 4 -17 2 12 2 30 0 40 -3 9 -5 -1 -4 -23z"/>
<path d="M1961 1053 c2 -35 2 -35 6 -8 3 16 10 33 16 37 8 5 6 8 -5 8 -14 0
-18 -8 -17 -37z"/>
<path d="M2004 1076 c-9 -23 0 -51 16 -52 9 0 10 1 3 3 -20 7 -16 51 5 56 16
4 16 5 -1 6 -10 0 -20 -5 -23 -13z"/>
<path d="M2062 1063 c-2 -35 13 -52 31 -34 9 9 8 11 -5 6 -13 -5 -17 0 -21 27
l-4 33 -1 -32z"/>
<path d="M1500 1053 c15 -7 12 -21 -5 -26 -11 -4 -10 -4 2 -3 21 2 25 28 5 32
-7 1 -8 0 -2 -3z"/>
<path d="M808 903 c7 -3 16 -2 19 1 4 3 -2 6 -13 5 -11 0 -14 -3 -6 -6z"/>
<path d="M3294 806 c-10 -25 0 -71 16 -72 9 0 10 1 3 3 -20 7 -16 71 5 76 16
4 16 5 -1 6 -10 0 -20 -5 -23 -13z"/>
<path d="M3393 775 c0 -27 2 -38 4 -22 2 15 2 37 0 50 -2 12 -4 0 -4 -28z"/>
<path d="M3453 775 c0 -27 2 -40 4 -28 3 14 13 23 31 26 l27 4 -27 2 c-19 1
-28 7 -31 24 -2 12 -4 0 -4 -28z"/>
<path d="M3245 800 c-3 -5 -1 -10 4 -10 6 0 11 5 11 10 0 6 -2 10 -4 10 -3 0
-8 -4 -11 -10z"/>
<path d="M3332 775 c0 -16 2 -22 5 -12 2 9 2 23 0 30 -3 6 -5 -1 -5 -18z"/>
<path d="M3553 791 c17 -6 17 -8 -2 -25 -28 -26 -26 -36 7 -35 26 1 26 1 4 8
l-24 6 21 19 c27 25 27 36 -1 35 -20 0 -21 -1 -5 -8z"/>
<path d="M900 770 c0 -5 5 -10 11 -10 5 0 7 5 4 10 -3 6 -8 10 -11 10 -2 0 -4
-4 -4 -10z"/>
<path d="M1123 735 c0 -27 2 -38 4 -22 2 15 2 37 0 50 -2 12 -4 0 -4 -28z"/>
<path d="M1178 768 c-2 -7 -1 -29 3 -48 l6 -35 2 33 c0 17 1 35 0 39 0 4 8 10
18 14 16 7 16 8 -3 8 -12 1 -24 -5 -26 -11z"/>
<path d="M3227 773 c-14 -14 -6 -23 21 -22 23 2 24 2 4 6 -12 2 -20 9 -17 14
7 10 1 12 -8 2z"/>
<path d="M1618 763 c12 -2 22 -11 22 -18 0 -7 -10 -15 -22 -17 -22 -3 -22 -4
3 -9 23 -5 26 -3 25 20 -1 20 -6 26 -26 28 -22 1 -22 1 -2 -4z"/>
<path d="M1850 761 c0 -5 -9 -11 -21 -14 -30 -8 -23 -62 9 -63 20 -1 22 3 22
42 0 24 -2 44 -5 44 -3 0 -5 -4 -5 -9z m-5 -46 c0 -10 -6 -20 -12 -22 -8 -3
-13 5 -13 22 0 17 5 25 13 23 6 -3 12 -13 12 -23z"/>
<path d="M2161 723 c1 -27 4 -38 6 -26 2 13 13 24 26 26 l22 4 -22 2 c-33 2
-29 29 5 34 25 4 25 4 -5 6 -33 1 -33 1 -32 -46z"/>
<path d="M2263 725 c0 -27 2 -38 4 -22 2 15 2 37 0 50 -2 12 -4 0 -4 -28z"/>
<path d="M2288 760 c-5 -17 3 -80 11 -80 7 0 6 79 -2 86 -3 3 -7 0 -9 -6z"/>
<path d="M962 723 c1 -35 2 -35 5 -7 3 26 8 31 33 31 25 0 30 -5 33 -31 4 -28
4 -28 3 4 -1 33 -3 35 -38 38 -38 2 -38 2 -36 -35z"/>
<path d="M1060 713 c0 -27 4 -43 8 -37 4 6 14 14 22 17 12 4 11 6 -2 6 -12 1
-18 9 -18 25 0 15 7 26 18 29 13 4 11 5 -5 6 -21 1 -23 -4 -23 -46z"/>
<path d="M1153 725 c0 -22 2 -30 4 -17 2 12 2 30 0 40 -3 9 -5 -1 -4 -23z"/>
<path d="M1213 725 c0 -22 2 -30 4 -17 2 12 2 30 0 40 -3 9 -5 -1 -4 -23z"/>
<path d="M1247 753 c-16 -15 -5 -33 19 -33 20 0 25 4 20 16 -3 9 -6 18 -6 20
0 7 -26 5 -33 -3z m28 -13 c3 -5 -1 -10 -9 -10 -9 0 -16 5 -16 10 0 6 4 10 9
10 6 0 13 -4 16 -10z"/>
<path d="M1301 723 c2 -35 2 -35 6 -8 3 16 10 33 16 37 8 5 6 8 -5 8 -14 0
-18 -8 -17 -37z"/>
<path d="M921 743 c-1 -7 -8 -13 -16 -13 -8 0 -19 -10 -25 -22 -10 -21 -10
-21 3 -5 8 9 20 17 27 17 7 0 19 -8 27 -17 13 -17 13 -17 5 2 -5 11 -12 27
-15 35 -3 9 -6 10 -6 3z"/>
<path d="M1676 741 c-3 -5 3 -7 14 -4 11 3 20 1 20 -5 0 -5 -9 -12 -21 -15
-22 -6 -22 -29 -1 -33 7 -1 8 0 2 3 -15 7 -12 23 4 23 8 0 17 -8 20 -17 2 -10
4 -2 3 17 -2 34 -27 54 -41 31z"/>
<path d="M1742 713 c1 -37 1 -37 5 -5 3 18 10 32 18 32 8 0 16 -14 18 -32 l5
-33 -2 35 c-1 28 -5 36 -23 38 -21 3 -23 -1 -21 -35z"/>
<path d="M1870 703 l0 -43 -135 0 -135 0 0 -280 0 -280 405 0 405 0 0 135 0
134 98 4 97 3 -97 2 -98 2 0 140 0 140 -265 0 c-219 0 -265 2 -265 14 0 8 7
13 16 12 9 0 19 6 21 14 4 13 3 13 -6 0 -8 -11 -13 -12 -22 -3 -16 16 -3 47
17 39 8 -3 12 -2 9 3 -3 6 -14 9 -25 8 -17 -1 -20 -9 -20 -44z m530 -323 l0
-270 -395 0 -395 0 0 270 0 270 395 0 395 0 0 -270z"/>
<path d="M1847 553 c-4 -7 -18 -57 -43 -158 -4 -15 -3 -17 4 -5 5 8 17 48 27
88 l17 72 53 0 52 0 44 -172 44 -173 60 0 60 0 16 60 c25 93 30 122 20 105 -4
-8 -16 -48 -26 -88 l-17 -72 -53 0 -52 0 -44 173 -44 172 -57 3 c-31 2 -58 -1
-61 -5z"/>
<path d="M1946 741 c-3 -5 3 -7 14 -4 11 3 20 1 20 -5 0 -5 -9 -12 -20 -15
-30 -8 -26 -37 5 -35 22 2 26 7 23 33 -3 30 -30 47 -42 26z m29 -41 c-3 -5
-10 -10 -16 -10 -5 0 -9 5 -9 10 0 6 7 10 16 10 8 0 12 -4 9 -10z"/>
<path d="M2010 746 c0 -2 9 -6 20 -9 11 -3 18 -1 14 4 -5 9 -34 13 -34 5z"/>
<path d="M2070 746 c0 -2 9 -6 20 -9 11 -3 18 -1 14 4 -5 9 -34 13 -34 5z"/>
<path d="M2233 715 c0 -22 2 -30 4 -17 2 12 2 30 0 40 -3 9 -5 -1 -4 -23z"/>
<path d="M2327 744 c-4 -4 -7 -18 -7 -31 0 -26 26 -41 42 -25 8 8 5 9 -11 5
-12 -3 -21 -1 -21 6 0 6 9 11 21 11 14 0 19 5 17 17 -3 19 -29 29 -41 17z m33
-14 c0 -5 -7 -10 -15 -10 -8 0 -15 5 -15 10 0 6 7 10 15 10 8 0 15 -4 15 -10z"/>
<path d="M2391 713 c2 -35 2 -35 6 -8 3 16 10 33 16 37 8 5 6 8 -5 8 -14 0
-18 -8 -17 -37z"/>
<path d="M1101 724 c0 -11 3 -14 6 -6 3 7 2 16 -1 19 -3 4 -6 -2 -5 -13z"/>
<path d="M2030 713 c15 -7 12 -21 -5 -26 -11 -4 -10 -4 2 -3 21 2 25 28 5 32
-7 1 -8 0 -2 -3z"/>
<path d="M2090 713 c15 -7 12 -21 -5 -26 -11 -4 -10 -4 2 -3 21 2 25 28 5 32
-7 1 -8 0 -2 -3z"/>
<path d="M1247 698 c2 -5 10 -8 18 -8 8 0 16 3 18 8 3 4 -5 7 -18 7 -13 0 -21
-3 -18 -7z"/>
<path d="M1620 690 c-23 -7 -23 -8 -3 -9 12 -1 25 4 28 9 3 6 5 10 3 9 -2 -1
-14 -5 -28 -9z"/>
<path d="M3508 670 c-6 -18 3 -80 11 -80 4 0 6 14 3 30 -3 18 0 30 7 30 6 0
11 -13 11 -30 0 -16 3 -30 8 -30 6 0 7 35 3 85 -1 6 -6 3 -11 -5 -8 -12 -11
-13 -19 -1 -6 10 -10 10 -13 1z"/>
<path d="M3683 635 c0 -27 2 -38 4 -22 2 15 2 37 0 50 -2 12 -4 0 -4 -28z"/>
<path d="M1000 380 c0 -222 3 -280 13 -274 6 4 96 65 198 136 l187 128 66 0
c55 0 64 -2 59 -15 -5 -14 -1 -13 31 1 20 10 36 21 36 24 0 3 -16 14 -36 23
-35 17 -35 17 -29 -3 6 -19 2 -20 -53 -20 l-59 0 -194 133 c-107 73 -200 136
-206 140 -10 7 -13 -51 -13 -273z m202 134 c101 -69 183 -129 183 -134 0 -8
-358 -260 -370 -260 -3 0 -5 117 -5 260 0 143 2 260 5 260 2 0 87 -57 187
-126z"/>
<path d="M1138 405 c-27 -23 -38 -43 -18 -30 6 4 20 -4 31 -17 l20 -23 -17 28
c-16 26 -16 29 1 47 24 27 16 25 -17 -5z"/>
<path d="M3151 623 c2 -35 2 -35 6 -8 3 16 10 33 16 37 8 5 6 8 -5 8 -14 0
-18 -8 -17 -37z"/>
<path d="M3196 651 c-4 -5 3 -7 14 -4 23 6 26 13 6 13 -8 0 -17 -4 -20 -9z"/>
<path d="M3251 621 c1 -35 2 -35 8 -7 9 42 29 44 34 4 l5 -33 -2 35 c-1 29 -5
35 -23 36 -20 1 -23 -3 -22 -35z"/>
<path d="M3324 648 c-4 -6 0 -16 9 -23 22 -16 21 -22 0 -28 -16 -4 -16 -5 -1
-6 24 -2 34 20 15 34 -21 15 -22 29 -1 21 8 -3 12 -2 9 4 -8 13 -22 13 -31 -2z"/>
<path d="M3383 625 c0 -22 2 -30 4 -17 2 12 2 30 0 40 -3 9 -5 -1 -4 -23z"/>
<path d="M3409 651 c8 -5 20 -7 27 -4 8 3 14 -6 17 -24 l4 -28 -1 30 c-1 26
-5 30 -31 32 -20 1 -25 -1 -16 -6z"/>
<path d="M3483 625 c0 -22 2 -30 4 -17 2 12 2 30 0 40 -3 9 -5 -1 -4 -23z"/>
<path d="M3593 654 c24 -8 22 -28 -3 -21 -12 3 -20 0 -20 -8 0 -8 9 -11 25 -7
31 5 30 36 0 39 -16 1 -16 1 -2 -3z"/>
<path d="M3644 646 c-8 -22 -1 -49 14 -52 7 -1 8 0 2 3 -14 7 -13 50 3 56 9 4
9 6 -1 6 -7 1 -15 -5 -18 -13z"/>
<path d="M3190 610 c0 -15 6 -19 24 -18 14 1 22 6 20 10 -3 4 -11 5 -19 1 -8
-3 -15 0 -15 5 0 6 8 13 18 15 13 4 11 5 -5 6 -17 1 -23 -5 -23 -19z"/>
<path d="M3595 600 c-16 -7 -17 -9 -3 -9 9 -1 20 4 23 9 7 11 7 11 -20 0z"/>
<path d="M0 380 l0 -200 305 0 305 0 0 95 0 95 160 0 c139 0 159 -2 153 -15
-5 -14 -1 -13 31 1 20 10 36 21 36 24 0 3 -16 14 -36 23 -35 17 -35 17 -29 -2
6 -19 1 -20 -154 -20 l-161 -1 0 100 0 100 -305 0 -305 0 0 -200z m600 0 l0
-190 -295 0 -295 0 0 190 0 190 295 0 295 0 0 -190z"/>
<path d="M450 491 c0 -5 -9 -11 -21 -14 -30 -8 -23 -62 9 -63 20 -1 22 3 22
42 0 24 -2 44 -5 44 -3 0 -5 -4 -5 -9z m-5 -46 c0 -10 -6 -20 -12 -22 -8 -3
-13 5 -13 22 0 17 5 25 13 23 6 -3 12 -13 12 -23z"/>
<path d="M150 476 c0 -2 9 -6 20 -9 11 -3 18 -1 14 4 -5 9 -34 13 -34 5z"/>
<path d="M214 466 c-9 -23 0 -51 17 -54 19 -4 32 23 24 49 -7 22 -33 25 -41 5z
m31 -21 c0 -10 -6 -20 -12 -22 -8 -3 -13 5 -13 22 0 17 5 25 13 23 6 -3 12
-13 12 -23z"/>
<path d="M274 451 c0 -21 7 -36 16 -38 10 -3 11 -2 3 4 -6 4 -13 22 -16 38 -4
27 -5 27 -3 -4z"/>
<path d="M313 445 c0 -22 2 -30 4 -17 2 12 2 30 0 40 -3 9 -5 -1 -4 -23z"/>
<path d="M342 443 c1 -37 1 -37 5 -5 3 18 10 32 18 32 8 0 16 -14 18 -32 l5
-33 -2 35 c-1 28 -5 36 -23 38 -21 3 -23 -1 -21 -35z"/>
<path d="M170 443 c15 -7 12 -21 -5 -26 -11 -4 -10 -4 2 -3 21 2 25 28 5 32
-7 1 -8 0 -2 -3z"/>
<path d="M403 305 c0 -27 2 -38 4 -22 2 15 2 37 0 50 -2 12 -4 0 -4 -28z"/>
<path d="M210 326 c0 -2 7 -7 16 -10 8 -3 12 -2 9 4 -6 10 -25 14 -25 6z"/>
<path d="M256 321 c-3 -5 3 -7 14 -4 11 3 20 1 20 -5 0 -5 -9 -12 -21 -15 -22
-6 -22 -29 -1 -33 7 -1 8 0 2 3 -15 7 -12 23 4 23 8 0 17 -8 20 -17 2 -10 4
-2 3 17 -2 34 -27 54 -41 31z"/>
<path d="M321 293 c2 -35 2 -35 6 -8 3 16 10 33 16 37 8 5 6 8 -5 8 -14 0 -18
-8 -17 -37z"/>
<path d="M364 316 c-8 -22 -1 -49 14 -52 7 -1 8 0 2 3 -14 7 -13 50 3 56 9 4
9 6 -1 6 -7 1 -15 -5 -18 -13z"/>
<path d="M191 294 c0 -11 3 -14 6 -6 3 7 2 16 -1 19 -3 4 -6 -2 -5 -13z"/>
<path d="M215 270 c-16 -7 -17 -9 -3 -9 9 -1 20 4 23 9 7 11 7 11 -20 0z"/>
<path d="M3543 485 c0 -27 2 -38 4 -22 2 15 2 37 0 50 -2 12 -4 0 -4 -28z"/>
<path d="M3034 509 c-23 -8 -90 -81 -117 -128 -28 -48 -13 -36 22 17 32 51 77
96 101 104 8 3 25 1 38 -3 13 -5 21 -5 18 0 -9 13 -40 19 -62 10z"/>
<path d="M3255 500 c-9 -15 4 -30 23 -29 15 1 15 2 0 6 -10 2 -18 8 -18 13 0
5 8 11 18 13 15 4 15 5 0 6 -9 0 -20 -3 -23 -9z"/>
<path d="M3313 475 c0 -22 2 -30 4 -17 2 12 2 30 0 40 -3 9 -5 -1 -4 -23z"/>
<path d="M3344 495 c-10 -26 1 -50 24 -51 18 -1 22 4 22 30 0 25 -4 32 -21 33
-11 1 -22 -4 -25 -12z m31 -20 c0 -10 -6 -20 -12 -22 -8 -3 -13 5 -13 22 0 17
5 25 13 23 6 -3 12 -13 12 -23z"/>
<path d="M3412 473 l1 -38 4 33 c3 24 8 32 19 28 8 -3 14 -1 14 4 0 6 -9 10
-20 10 -17 0 -20 -6 -18 -37z"/>
<path d="M3476 501 c-3 -5 3 -7 14 -4 11 3 20 1 20 -5 0 -5 -9 -12 -21 -15
-22 -6 -22 -29 -1 -33 7 -1 8 0 2 3 -15 7 -12 23 4 23 8 0 17 -8 20 -17 2 -10
4 -2 3 17 -2 34 -27 54 -41 31z"/>
<path d="M3135 450 c10 -11 20 -20 23 -20 3 0 -3 9 -13 20 -10 11 -20 20 -23
20 -3 0 3 -9 13 -20z"/>
<path d="M3258 448 c5 -5 16 -8 23 -6 8 3 3 7 -10 11 -17 4 -21 3 -13 -5z"/>
<path d="M3348 423 c6 -2 18 -2 25 0 6 3 1 5 -13 5 -14 0 -19 -2 -12 -5z"/>
<path d="M3186 373 c66 -115 131 -190 156 -180 9 4 8 6 -3 6 -24 1 -80 67
-128 150 -23 39 -44 71 -47 71 -3 0 7 -21 22 -47z"/>
<path d="M2726 395 c5 -11 -7 -15 -58 -18 l-63 -3 62 -2 c51 -2 61 -5 57 -17
-8 -19 3 -18 45 4 l35 19 -32 16 c-38 20 -53 20 -46 1z"/>
<path d="M3474 308 c-33 -54 -73 -98 -99 -108 -14 -6 -15 -9 -5 -9 20 -1 79
60 114 117 14 23 24 42 21 42 -2 0 -17 -19 -31 -42z"/>
</g>
</svg>
